<?xml version="1.0" encoding="utf-8"?>
<!-- Generator: Adobe Illustrator 19.1.0, SVG Export Plug-In . SVG Version: 6.00 Build 0)  -->
<svg version="1.1" id="Layer_1" xmlns="http://www.w3.org/2000/svg" xmlns:xlink="http://www.w3.org/1999/xlink" x="0px" y="0px"
	 viewBox="125 -575 300 1200" style="enable-background:new 125 -575 300 1200;" xml:space="preserve">
<style type="text/css">
	.st0{display:none;}
	.st1{display:inline;fill:none;stroke:#70706E;stroke-width:0.7484;stroke-miterlimit:10;}
	.st2{display:inline;}
	.st3{fill:none;stroke:#70706E;stroke-width:0.75;stroke-miterlimit:10;}
	.st4{fill:#FFFFFF;}
	.st5{fill:url(#SVGID_1_);}
	.st6{fill:url(#SVGID_2_);}
	.st7{fill:url(#SVGID_3_);}
	.st8{fill:url(#SVGID_4_);}
</style>
<g id="Layer_2" class="st0">
	<rect x="691.4" y="-1147.3" class="st1" width="299.4" height="299.4"/>
	<g class="st2">
		<rect x="691.4" y="-847.6" class="st3" width="300" height="300"/>
	</g>
	<rect x="691.4" y="-548.2" class="st1" width="299.4" height="299.4"/>
	<rect x="691.4" y="-248.9" class="st1" width="299.4" height="299.4"/>
</g>
<g>
	<path class="st4" d="M184.9-400l18.3-50h9.2l18.3,50h-9.6l-4.3-11.8h-17.9l-4.3,11.8H184.9z M202-420.3h11.7l-5.8-16L202-420.3z"/>
	<path class="st4" d="M314.5-400l18.3-50h9.2l18.3,50h-9.6l-4.3-11.8h-17.9l-4.3,11.8H314.5z M331.5-420.3h11.7l-5.8-16L331.5-420.3
		z"/>
	<path class="st4" d="M235.3-450h7.4l25.6,31.8V-450h9.6l0,50h-6.7l-26.3-32.6v32.6h-9.6V-450z"/>
	<path class="st4" d="M322.8-450l-3.1,8.6h-13.2l0,41.4h-9.6l0-41.4h-13.2v-8.6H322.8z"/>
	<path class="st4" d="M407.5-400l-15.6-21.6c2-0.7,3.5-1.8,4.8-3.2c2.5-2.6,3.9-6.4,3.9-10.4c0-3.9-1.4-7.8-3.9-10.4
		c-2.8-2.9-6.6-4.5-13-4.5h-18.8v50h9.6l0-20.4h7.9L397-400H407.5z M374.5-441.4h8.7c3.3,0,4.9,0.8,6.1,2c1.1,1.1,1.6,2.6,1.6,4.3
		c0,1.6-0.6,3.1-1.6,4.2c-1.1,1.2-2.8,2-6.1,2h-8.7V-441.4z"/>
	<g>
		<g>
			<polygon class="st4" points="182.6,-450 172.1,-450 154.2,-425 172.1,-400 182.6,-400 164.7,-425 			"/>
		</g>
		<linearGradient id="SVGID_1_" gradientUnits="userSpaceOnUse" x1="152.477" y1="-399.9829" x2="152.477" y2="-449.9799">
			<stop  offset="1.000000e-02" style="stop-color:#F2DA64"/>
			<stop  offset="3.207484e-02" style="stop-color:#E1C553"/>
			<stop  offset="7.345867e-02" style="stop-color:#C5A437"/>
			<stop  offset="0.113" style="stop-color:#B18C23"/>
			<stop  offset="0.1495" style="stop-color:#A57D17"/>
			<stop  offset="0.18" style="stop-color:#A17813"/>
			<stop  offset="0.1949" style="stop-color:#A57D17"/>
			<stop  offset="0.51" style="stop-color:#F1DA64"/>
			<stop  offset="0.5776" style="stop-color:#EBD15D"/>
			<stop  offset="0.6875" style="stop-color:#DAB94A"/>
			<stop  offset="0.71" style="stop-color:#D6B345"/>
			<stop  offset="1" style="stop-color:#977114"/>
		</linearGradient>
		<rect x="151" y="-450" class="st5" width="2.9" height="50"/>
		<rect x="142.2" y="-450" class="st4" width="8.8" height="50"/>
	</g>
</g>
<g>
	<path class="st4" d="M207-105.7l13.8-37.7h6.9l13.8,37.7h-7.3l-3.3-8.9h-13.5l-3.3,8.9H207z M219.9-121.1h8.8l-4.4-12.1
		L219.9-121.1z"/>
	<path class="st4" d="M304.7-105.7l13.8-37.7h6.9l13.8,37.7H332l-3.3-8.9h-13.5l-3.3,8.9H304.7z M317.6-121.1h8.8l-4.4-12.1
		L317.6-121.1z"/>
	<path class="st4" d="M245-143.4h5.5l19.3,24v-24h7.3l0,37.7h-5l-19.8-24.6v24.6H245V-143.4z"/>
	<path class="st4" d="M311-143.4l-2.4,6.4h-9.9l0,31.2h-7.3l0-31.2h-9.9v-6.4H311z"/>
	<path class="st4" d="M374.8-105.7L363-122c1.5-0.6,2.6-1.4,3.6-2.4c1.9-1.9,3-4.8,3-7.8c0-3-1.1-5.9-3-7.8c-2.1-2.2-5-3.4-9.8-3.4
		h-14.2l0,37.7h7.3l0-15.3h5.9l11,15.3H374.8z M350-136.9h6.6c2.5,0,3.7,0.6,4.6,1.5c0.8,0.9,1.2,2,1.2,3.2c0,1.2-0.4,2.3-1.2,3.2
		c-0.9,0.9-2.1,1.5-4.6,1.5H350V-136.9z"/>
	<g>
		<g>
			<polygon class="st4" points="205.3,-143.4 197.4,-143.4 183.9,-124.5 197.4,-105.7 205.3,-105.7 191.8,-124.5 			"/>
		</g>
		<linearGradient id="SVGID_2_" gradientUnits="userSpaceOnUse" x1="182.5925" y1="-105.7032" x2="182.5925" y2="-143.3932">
			<stop  offset="1.000000e-02" style="stop-color:#F2DA64"/>
			<stop  offset="3.207484e-02" style="stop-color:#E1C553"/>
			<stop  offset="7.345867e-02" style="stop-color:#C5A437"/>
			<stop  offset="0.113" style="stop-color:#B18C23"/>
			<stop  offset="0.1495" style="stop-color:#A57D17"/>
			<stop  offset="0.18" style="stop-color:#A17813"/>
			<stop  offset="0.1949" style="stop-color:#A57D17"/>
			<stop  offset="0.51" style="stop-color:#F1DA64"/>
			<stop  offset="0.5776" style="stop-color:#EBD15D"/>
			<stop  offset="0.6875" style="stop-color:#DAB94A"/>
			<stop  offset="0.71" style="stop-color:#D6B345"/>
			<stop  offset="1" style="stop-color:#977114"/>
		</linearGradient>
		<rect x="181.5" y="-143.4" class="st6" width="2.2" height="37.7"/>
		<rect x="174.8" y="-143.4" class="st4" width="6.7" height="37.7"/>
	</g>
</g>
<path class="st4" d="M223.8,189l10.3-28.3h5.2l10.4,28.3h-5.4l-2.4-6.7h-10.1l-2.4,6.7H223.8z M233.5,177.4h6.6l-3.3-9.1
	L233.5,177.4z"/>
<path class="st4" d="M297.1,189l10.3-28.3h5.2L323,189h-5.4l-2.4-6.7H305l-2.4,6.7H297.1z M306.8,177.4h6.6l-3.3-9.1L306.8,177.4z"
	/>
<path class="st4" d="M252.3,160.7h4.2l14.5,18v-18h5.4l0,28.3h-3.8l-14.8-18.4V189h-5.4V160.7z"/>
<path class="st4" d="M301.8,160.7l-1.8,4.8h-7.5l0,23.4h-5.4l0-23.4h-7.5v-4.8H301.8z"/>
<path class="st4" d="M349.7,189l-8.8-12.2c1.1-0.4,2-1,2.7-1.8c1.4-1.5,2.2-3.6,2.2-5.9c0-2.2-0.8-4.4-2.2-5.9
	c-1.6-1.7-3.7-2.5-7.4-2.5h-10.6l0,28.3h5.5l0-11.5h4.4l8.3,11.5H349.7z M331,165.5h4.9c1.9,0,2.8,0.4,3.4,1.1
	c0.6,0.6,0.9,1.5,0.9,2.4c0,0.9-0.3,1.7-0.9,2.4c-0.6,0.7-1.6,1.1-3.4,1.1H331V165.5z"/>
<g>
	<g>
		<polygon class="st4" points="222.5,160.7 216.6,160.7 206.5,174.8 216.6,189 222.5,189 212.4,174.8 		"/>
	</g>
	<linearGradient id="SVGID_3_" gradientUnits="userSpaceOnUse" x1="204.845" y1="188.9609" x2="204.845" y2="160.6938">
		<stop  offset="1.000000e-02" style="stop-color:#F2DA64"/>
		<stop  offset="3.207484e-02" style="stop-color:#E1C553"/>
		<stop  offset="7.345867e-02" style="stop-color:#C5A437"/>
		<stop  offset="0.113" style="stop-color:#B18C23"/>
		<stop  offset="0.1495" style="stop-color:#A57D17"/>
		<stop  offset="0.18" style="stop-color:#A17813"/>
		<stop  offset="0.1949" style="stop-color:#A57D17"/>
		<stop  offset="0.51" style="stop-color:#F1DA64"/>
		<stop  offset="0.5776" style="stop-color:#EBD15D"/>
		<stop  offset="0.6875" style="stop-color:#DAB94A"/>
		<stop  offset="0.71" style="stop-color:#D6B345"/>
		<stop  offset="1" style="stop-color:#977114"/>
	</linearGradient>
	<rect x="203.3" y="160.7" class="st7" width="3" height="28.3"/>
	<rect x="199.7" y="160.7" class="st4" width="3.7" height="28.3"/>
</g>
<g>
	<g>
		<polygon class="st4" points="285,461.8 279.8,461.8 270.9,474.2 279.8,486.5 285,486.5 276.1,474.2 		"/>
	</g>
	<linearGradient id="SVGID_4_" gradientUnits="userSpaceOnUse" x1="269.5198" y1="486.5245" x2="269.5198" y2="461.7768">
		<stop  offset="1.000000e-02" style="stop-color:#F2DA64"/>
		<stop  offset="3.207484e-02" style="stop-color:#E1C553"/>
		<stop  offset="7.345867e-02" style="stop-color:#C5A437"/>
		<stop  offset="0.113" style="stop-color:#B18C23"/>
		<stop  offset="0.1495" style="stop-color:#A57D17"/>
		<stop  offset="0.18" style="stop-color:#A17813"/>
		<stop  offset="0.1949" style="stop-color:#A57D17"/>
		<stop  offset="0.51" style="stop-color:#F1DA64"/>
		<stop  offset="0.5776" style="stop-color:#EBD15D"/>
		<stop  offset="0.6875" style="stop-color:#DAB94A"/>
		<stop  offset="0.71" style="stop-color:#D6B345"/>
		<stop  offset="1" style="stop-color:#977114"/>
	</linearGradient>
	<rect x="268.2" y="461.8" class="st8" width="2.6" height="24.7"/>
	<rect x="265" y="461.8" class="st4" width="3.2" height="24.7"/>
</g>
</svg>
