<?xml version="1.0" encoding="utf-8"?>
<!-- Generator: Adobe Illustrator 19.1.0, SVG Export Plug-In . SVG Version: 6.00 Build 0)  -->
<svg version="1.1" id="Layer_1" xmlns="http://www.w3.org/2000/svg" xmlns:xlink="http://www.w3.org/1999/xlink" x="0px" y="0px"
	 viewBox="0 0 552.7 811" style="enable-background:new 0 0 552.7 811;" xml:space="preserve">
<style type="text/css">
	.st0{fill:none;}
</style>
<g>
	<path class="st0" d="M130.9,619h291v-73.6H236.4c5.3-8.8,11.8-16.5,19.5-23.1c7.7-6.6,22-17.4,43-32.2l33.5-23.7
		c28.2-19.9,48.4-38,60.8-54.2c18.8-24.4,28.2-52.4,28.2-83.8c0-41-13.3-74-39.9-98.9C354.8,204.5,319,192,274,192
		c-56.9,0-96.5,21.2-118.8,63.6c-11.7,22.3-18.3,51.5-19.7,87.6h81.2c1-23.8,4.1-41.2,9.4-52.2c9.2-18.9,26.5-28.4,51.9-28.4
		c18.6,0,32.8,6,42.8,17.9c10,11.9,14.9,26.9,14.9,44.8c0,22.1-8.7,42.4-26.1,61c-11.3,11.9-36.2,31.6-74.7,59.2
		c-44.3,31.6-72.5,61.6-84.4,90C138.2,560.7,131.7,588.5,130.9,619"/>
</g>
</svg>
