<?xml version="1.0" encoding="utf-8"?>
<!-- Generator: Adobe Illustrator 19.1.0, SVG Export Plug-In . SVG Version: 6.00 Build 0)  -->
<svg version="1.1" id="Layer_1" xmlns="http://www.w3.org/2000/svg" xmlns:xlink="http://www.w3.org/1999/xlink" x="0px" y="0px"
	 viewBox="0 0 277.3 41.1" style="enable-background:new 0 0 277.3 41.1;" xml:space="preserve">
<style type="text/css">
	.st0{fill:#FFFFFF;}
	.st1{clip-path:url(#SVGID_2_);fill:url(#SVGID_3_);}
	.st2{fill:#8990C7;}
	.st3{clip-path:url(#SVGID_5_);fill:url(#SVGID_6_);}
	.st4{clip-path:url(#SVGID_8_);fill:url(#SVGID_9_);}
	.st5{fill:#EB6728;}
	.st6{clip-path:url(#SVGID_11_);fill:url(#SVGID_12_);}
	.st7{fill:#0075BE;}
	.st8{clip-path:url(#SVGID_14_);fill:url(#SVGID_15_);}
	.st9{fill:#009CDE;}
	.st10{clip-path:url(#SVGID_17_);fill:url(#SVGID_18_);}
	.st11{fill:#E6334C;}
	.st12{clip-path:url(#SVGID_20_);fill:url(#SVGID_21_);}
	.st13{fill:#00AA95;}
	.st14{clip-path:url(#SVGID_23_);fill:url(#SVGID_24_);}
	.st15{fill:#884E98;}
	.st16{clip-path:url(#SVGID_26_);fill:url(#SVGID_27_);}
	.st17{fill:#E5007E;}
	.st18{clip-path:url(#SVGID_29_);fill:url(#SVGID_30_);}
	.st19{fill:#E20613;}
	.st20{clip-path:url(#SVGID_32_);fill:url(#SVGID_33_);}
	.st21{fill:#00A139;}
	.st22{clip-path:url(#SVGID_35_);fill:url(#SVGID_36_);}
	.st23{fill:#9C9B9B;}
	.st24{fill:#F29100;}
	.st25{clip-path:url(#SVGID_38_);fill:url(#SVGID_39_);}
	.st26{fill:#93C01F;}
</style>
<path class="st0" d="M93.1,23.5l3.2-9.8l3.2,9.8H93.1z M93.8,8.2l-8.3,24.7H90l1.8-5.4h8.9l1.7,5.4h4.6L98.8,8.2H93.8z"/>
<path class="st0" d="M29.9,23.5l3.2-9.8l3.2,9.8H29.9z M30.7,8.2l-8.3,24.7h4.6l1.8-5.4h8.9l1.7,5.4h4.6L35.6,8.2H30.7z"/>
<path class="st0" d="M114,12.2l5,0c4,0,4.6,2.3,4.6,3.6c0,3.1-2.9,3.6-4.6,3.6h-5V12.2z M122.4,23c3.5-0.9,5.4-3.5,5.4-7.2
	c0-4.6-3.4-7.6-8.6-7.6h-9.5v24.7h4.3v-9.5h3.4l7,9.5h5.4L122.4,23z"/>
<polygon class="st0" points="62.5,25 50.8,8.2 46.5,8.2 46.5,32.9 50.8,32.9 50.8,16.1 62.5,32.9 66.7,32.9 66.7,8.2 62.5,8.2 "/>
<polygon class="st0" points="89.6,8.2 69.9,8.2 69.9,12.2 77,12.2 77,32.9 81.3,32.9 81.3,12.2 88,12.2 "/>
<rect x="-10.2" y="18.4" transform="matrix(-2.773694e-04 -1 1 -2.773694e-04 -18.4138 22.7074)" class="st0" width="24.7" height="4.3"/>
<polygon class="st0" points="19.8,8.2 14.8,8.2 5.9,20.6 14.8,32.9 20,32.9 11.1,20.6 "/>
<g>
	<defs>
		<rect id="SVGID_1_" x="4.3" y="8.2" width="1.5" height="24.7"/>
	</defs>
	<clipPath id="SVGID_2_">
		<use xlink:href="#SVGID_1_"  style="overflow:visible;"/>
	</clipPath>
	
		<linearGradient id="SVGID_3_" gradientUnits="userSpaceOnUse" x1="-194.991" y1="646.9664" x2="-194.307" y2="646.9664" gradientTransform="matrix(0 -36.0551 -36.0551 0 23331.5078 -6997.5371)">
		<stop  offset="0" style="stop-color:#F0E173"/>
		<stop  offset="0.2833" style="stop-color:#F0C334"/>
		<stop  offset="0.606" style="stop-color:#C79A32"/>
		<stop  offset="0.7855" style="stop-color:#F0C334"/>
		<stop  offset="1" style="stop-color:#976C32"/>
	</linearGradient>
	<rect x="4.3" y="8.2" class="st1" width="1.5" height="24.7"/>
</g>
<g>
	<g>
		<path class="st2" d="M152.6,18v3.3h-8.1v11.6H141V8.3H155v3.3h-10.5V18H152.6z"/>
		<path class="st2" d="M161.1,30c-1.6-1.7-2.6-4-2.6-7.3V8.3h3.5v14.6c0,2.3,0.6,3.8,1.5,4.8c1.2,1.4,3.1,2.2,5.1,2.2
			s3.9-0.8,5.1-2.2c1-1.1,1.5-2.5,1.5-4.8V8.3h3.5v14.4c0,3.3-1,5.6-2.6,7.3c-1.9,2-4.6,3.2-7.6,3.2C165.7,33.2,163,32,161.1,30z"/>
		<path class="st2" d="M181.8,8.3h16.9v3.3H192v21.3h-3.5V11.6h-6.7V8.3z"/>
		<path class="st2" d="M204.8,30c-1.6-1.7-2.6-4-2.6-7.3V8.3h3.5v14.6c0,2.3,0.6,3.8,1.5,4.8c1.2,1.4,3.1,2.2,5.1,2.2
			s3.9-0.8,5.1-2.2c1-1.1,1.5-2.5,1.5-4.8V8.3h3.5v14.4c0,3.3-1,5.6-2.6,7.3c-1.9,2-4.6,3.2-7.6,3.2C209.5,33.2,206.7,32,204.8,30z"
			/>
		<path class="st2" d="M230.1,21.3v11.6h-3.5V8.3h8.6c2.2,0,3.7,0.5,4.8,1.4c1.5,1.2,2.4,3,2.4,5.1c0,2-0.9,3.9-2.4,5.1
			c-0.8,0.6-1.7,1.1-2.9,1.3l8.8,11.7h-4.3l-8.7-11.6H230.1z M235,18c1.6,0,2.4-0.4,3-0.9c0.6-0.6,0.9-1.4,0.9-2.2s-0.4-1.7-0.9-2.2
			c-0.6-0.6-1.4-0.9-3-0.9h-4.9V18H235z"/>
		<path class="st2" d="M259.3,18v3.3h-8.1v8.3h10.9v3.3h-14.4V8.3h14.1v3.3h-10.5V18H259.3z"/>
	</g>
	<g>
		<rect x="273.7" class="st2" width="3.5" height="41.1"/>
		<g>
			<path class="st2" d="M275.5,28.8c-0.8,0.7-1.9,1-3,1c-2.5,0-4.6-1.4-6-3.2l-2.4,2.4c2.2,2.6,5.2,4.1,8.6,4.1c1,0,2-0.2,2.9-0.5
				V28.8z"/>
			<path class="st2" d="M268.3,19.9c2.3,1.5,5.5,2.1,7.2,3.7v-4c-3.1-1.5-6.8-2.4-6.8-5c0-2.1,2-3.3,4.1-3.3c0.9,0,1.9,0.2,2.8,0.6
				V8.4c-0.9-0.3-1.8-0.4-2.9-0.4c-4.3,0-7.4,3-7.4,6.5C265.2,17,266.5,18.7,268.3,19.9z"/>
		</g>
	</g>
</g>
</svg>
