<?xml version="1.0" encoding="utf-8"?>
<!-- Generator: Adobe Illustrator 19.1.0, SVG Export Plug-In . SVG Version: 6.00 Build 0)  -->
<svg version="1.1" id="Layer_1" xmlns="http://www.w3.org/2000/svg" xmlns:xlink="http://www.w3.org/1999/xlink" x="0px" y="0px"
	 viewBox="0 0 353.7 36.3" style="enable-background:new 0 0 353.7 36.3;" xml:space="preserve">
<style type="text/css">
	.st0{fill:#1D1D1B;}
	.st1{clip-path:url(#SVGID_2_);fill:url(#SVGID_3_);}
	.st2{fill:#8990C7;}
	.st3{clip-path:url(#SVGID_5_);fill:url(#SVGID_6_);}
	.st4{clip-path:url(#SVGID_8_);fill:url(#SVGID_9_);}
	.st5{fill:#EB6728;}
	.st6{clip-path:url(#SVGID_11_);fill:url(#SVGID_12_);}
	.st7{fill:#0075BE;}
	.st8{clip-path:url(#SVGID_14_);fill:url(#SVGID_15_);}
	.st9{fill:#009CDE;}
	.st10{clip-path:url(#SVGID_17_);fill:url(#SVGID_18_);}
	.st11{fill:#E6334C;}
	.st12{clip-path:url(#SVGID_20_);fill:url(#SVGID_21_);}
	.st13{fill:#00AA95;}
	.st14{clip-path:url(#SVGID_23_);fill:url(#SVGID_24_);}
	.st15{fill:#884E98;}
	.st16{clip-path:url(#SVGID_26_);fill:url(#SVGID_27_);}
	.st17{fill:#E5007E;}
	.st18{clip-path:url(#SVGID_29_);fill:url(#SVGID_30_);}
	.st19{fill:#E20613;}
	.st20{clip-path:url(#SVGID_32_);fill:url(#SVGID_33_);}
	.st21{fill:#00A139;}
	.st22{clip-path:url(#SVGID_35_);fill:url(#SVGID_36_);}
	.st23{fill:#9C9B9B;}
	.st24{fill:#F29100;}
	.st25{clip-path:url(#SVGID_38_);fill:url(#SVGID_39_);}
	.st26{fill:#93C01F;}
</style>
<g>
	<path class="st0" d="M93.7,20.9l3.2-9.8l3.2,9.8H93.7z M94.5,5.6l-8.4,24.8h4.6l1.8-5.4h9l1.8,5.4h4.7L99.5,5.6H94.5z"/>
	<path class="st0" d="M30.2,20.9l3.2-9.8l3.2,9.8H30.2z M30.9,5.6l-8.4,24.8h4.6l1.8-5.4h9l1.8,5.4h4.7L35.9,5.6H30.9z"/>
	<path class="st0" d="M114.8,9.6l5,0c4,0,4.6,2.3,4.6,3.6c0,3.2-2.9,3.6-4.6,3.6h-5V9.6z M123.2,20.5c3.5-0.9,5.5-3.5,5.5-7.3
		c0-4.6-3.4-7.6-8.7-7.6h-9.6v24.8h4.3v-9.5h3.4l7.1,9.5h5.4L123.2,20.5z"/>
	<polygon class="st0" points="62.9,22.5 51.1,5.6 46.9,5.6 46.9,30.4 51.1,30.4 51.1,13.5 62.9,30.4 67.2,30.4 67.2,5.6 62.9,5.6 	
		"/>
	<polygon class="st0" points="90.2,5.6 70.4,5.6 70.4,9.6 77.6,9.6 77.6,30.4 81.9,30.4 81.9,9.6 88.6,9.6 	"/>
	
		<rect x="-10.3" y="15.8" transform="matrix(-2.773694e-04 -1 1 -2.773694e-04 -15.828 20.1509)" class="st0" width="24.8" height="4.3"/>
	<polygon class="st0" points="19.9,5.6 14.9,5.6 6,18 14.9,30.4 20.1,30.4 11.2,18 	"/>
	<g>
		<defs>
			<rect id="SVGID_34_" x="4.3" y="5.6" width="1.5" height="24.8"/>
		</defs>
		<clipPath id="SVGID_2_">
			<use xlink:href="#SVGID_34_"  style="overflow:visible;"/>
		</clipPath>
		
			<linearGradient id="SVGID_3_" gradientUnits="userSpaceOnUse" x1="-208.4547" y1="159.0463" x2="-207.7659" y2="159.0463" gradientTransform="matrix(0 -36.0551 -36.0551 0 5739.521 -7485.4561)">
			<stop  offset="0" style="stop-color:#F0E173"/>
			<stop  offset="0.2833" style="stop-color:#F0C334"/>
			<stop  offset="0.606" style="stop-color:#C79A32"/>
			<stop  offset="0.7855" style="stop-color:#F0C334"/>
			<stop  offset="1" style="stop-color:#976C32"/>
		</linearGradient>
		<rect x="4.3" y="5.6" class="st1" width="1.5" height="24.8"/>
	</g>
	<path class="st23" d="M177.2,25.3c-7,0-12.6-5.7-12.6-12.6c0-7,5.7-12.6,12.6-12.6c7,0,12.6,5.7,12.6,12.6
		C189.8,19.6,184.2,25.3,177.2,25.3z M177.2,3.3c-5.1,0-9.3,4.2-9.3,9.3c0,5.1,4.2,9.3,9.3,9.3c5.1,0,9.3-4.2,9.3-9.3
		C186.5,7.5,182.3,3.3,177.2,3.3z"/>
	<path class="st23" d="M177.2,36.3c-7,0-12.6-5.7-12.6-12.6c0-7,5.7-12.6,12.6-12.6c7,0,12.6,5.7,12.6,12.6
		C189.8,30.6,184.2,36.3,177.2,36.3z M177.2,14.3c-5.1,0-9.3,4.2-9.3,9.3c0,5.1,4.2,9.3,9.3,9.3c5.1,0,9.3-4.2,9.3-9.3
		C186.5,18.5,182.3,14.3,177.2,14.3z"/>
	<path class="st23" d="M152.8,5.4c3.5,0,6.9,1.5,9.1,3.8l-2.4,2.3c-1.5-1.6-4-2.8-6.7-2.8c-5.1,0-9,4-9,9.4c0,5.6,4,9.4,9.3,9.4
		c3.3,0,5.7-1.8,7.1-3.5l2.5,2.3c-2.1,2.7-5.8,4.6-9.6,4.6c-7.4,0-12.8-5.4-12.8-12.7C140.2,11,145.6,5.4,152.8,5.4z"/>
	<path class="st23" d="M196.7,12.4v18.2h-3.5V5.8h2.5L210.5,24V5.8h3.5v24.8h-2.5L196.7,12.4z"/>
	<path class="st23" d="M220.5,24.3c1.5,1.8,3.5,3.2,6,3.2c2.3,0,4.3-1.5,4.3-3.7c0-3.8-5.2-4.2-8.5-6.4c-1.8-1.2-3.1-2.9-3.1-5.4
		c0-3.6,3.2-6.6,7.5-6.6c3.1,0,5.3,1.4,6.7,2.5l-2.1,2.6c-1.3-1.1-2.9-1.7-4.4-1.7c-2.1,0-4.1,1.2-4.1,3.3c0,3.1,5.3,3.8,8.5,5.9
		c1.7,1.1,3.2,2.8,3.2,5.7c0,4.4-3.4,7.2-7.7,7.2c-3.4,0-6.5-1.5-8.7-4.1L220.5,24.3z"/>
	<path class="st23" d="M240.8,27.6c-1.6-1.7-2.6-4-2.6-7.4V5.8h3.5v14.7c0,2.3,0.6,3.8,1.6,4.9c1.2,1.4,3.1,2.2,5.2,2.2
		s3.9-0.8,5.2-2.2c1-1.1,1.6-2.5,1.6-4.9V5.8h3.5v14.5c0,3.3-1,5.6-2.6,7.4c-1.9,2-4.6,3.3-7.7,3.3
		C245.4,30.9,242.7,29.7,240.8,27.6z"/>
	<path class="st23" d="M266.9,27.2h11v3.4h-14.5V5.8h3.5V27.2z"/>
	<path class="st23" d="M276.4,5.8h17v3.4h-6.7v21.4h-3.5V9.1h-6.7V5.8z"/>
	<path class="st23" d="M297.2,5.8h3.5v24.8h-3.5V5.8z"/>
	<path class="st23" d="M310,12.4v18.2h-3.5V5.8h2.5L323.8,24V5.8h3.5v24.8h-2.5L310,12.4z"/>
	<path class="st23" d="M353.7,26.3c-2.1,2.7-5.8,4.6-9.6,4.6c-7.4,0-12.8-5.4-12.8-12.7c0-7.1,5.4-12.7,12.5-12.7
		c3.5,0,6.9,1.5,9.1,3.8l-2.4,2.3c-1.5-1.6-4-2.8-6.7-2.8c-5.1,0-9,4-9,9.4c0,5.6,4,9.4,9.3,9.4c2.6,0,4.8-1,6.1-2.3v-6.4h-7.1v-3.4
		h10.6V26.3z"/>
</g>
</svg>
