<?xml version="1.0" encoding="utf-8"?>
<!-- Generator: Adobe Illustrator 19.1.0, SVG Export Plug-In . SVG Version: 6.00 Build 0)  -->
<svg version="1.1" id="Layer_1" xmlns="http://www.w3.org/2000/svg" xmlns:xlink="http://www.w3.org/1999/xlink" x="0px" y="0px"
	 viewBox="0 0 256.4 25.5" style="enable-background:new 0 0 256.4 25.5;" xml:space="preserve">
<style type="text/css">
	.st0{fill:#1D1D1B;}
	.st1{clip-path:url(#SVGID_2_);fill:url(#SVGID_3_);}
	.st2{fill:#8990C7;}
	.st3{clip-path:url(#SVGID_5_);fill:url(#SVGID_6_);}
	.st4{clip-path:url(#SVGID_8_);fill:url(#SVGID_9_);}
	.st5{fill:#EB6728;}
	.st6{clip-path:url(#SVGID_11_);fill:url(#SVGID_12_);}
	.st7{fill:#0075BE;}
	.st8{clip-path:url(#SVGID_14_);fill:url(#SVGID_15_);}
	.st9{fill:#009CDE;}
	.st10{clip-path:url(#SVGID_17_);fill:url(#SVGID_18_);}
	.st11{fill:#E6334C;}
	.st12{clip-path:url(#SVGID_20_);fill:url(#SVGID_21_);}
	.st13{fill:#00AA95;}
	.st14{clip-path:url(#SVGID_23_);fill:url(#SVGID_24_);}
	.st15{fill:#884E98;}
	.st16{clip-path:url(#SVGID_26_);fill:url(#SVGID_27_);}
	.st17{fill:#E5007E;}
	.st18{clip-path:url(#SVGID_29_);fill:url(#SVGID_30_);}
	.st19{fill:#E20613;}
	.st20{clip-path:url(#SVGID_32_);fill:url(#SVGID_33_);}
	.st21{fill:#00A139;}
	.st22{clip-path:url(#SVGID_35_);fill:url(#SVGID_36_);}
	.st23{fill:#9C9B9B;}
	.st24{fill:#F29100;}
	.st25{clip-path:url(#SVGID_38_);fill:url(#SVGID_39_);}
	.st26{fill:#93C01F;}
</style>
<g>
	<g>
		<path class="st0" d="M93.1,15.6l3.2-9.8l3.2,9.8H93.1z M93.8,0.3L85.5,25H90l1.8-5.4h8.9l1.7,5.4h4.6L98.8,0.3H93.8z"/>
		<path class="st0" d="M29.9,15.6l3.2-9.8l3.2,9.8H29.9z M30.7,0.3L22.3,25h4.6l1.8-5.4h8.9l1.7,5.4h4.6L35.6,0.3H30.7z"/>
		<path class="st0" d="M114,4.3l5,0c4,0,4.6,2.3,4.6,3.6c0,3.1-2.9,3.6-4.6,3.6h-5V4.3z M122.4,15.2c3.5-0.9,5.4-3.5,5.4-7.2
			c0-4.6-3.4-7.6-8.6-7.6h-9.5V25h4.3v-9.5h3.4l7,9.5h5.4L122.4,15.2z"/>
		<polygon class="st0" points="62.5,17.1 50.8,0.3 46.5,0.3 46.5,25 50.8,25 50.8,8.2 62.5,25 66.7,25 66.7,0.3 62.5,0.3 		"/>
		<polygon class="st0" points="89.6,0.3 69.9,0.3 69.9,4.3 77,4.3 77,25 81.3,25 81.3,4.3 88,4.3 		"/>
		
			<rect x="-10.2" y="10.5" transform="matrix(-2.773694e-04 -1 1 -2.773694e-04 -10.5201 14.8116)" class="st0" width="24.7" height="4.3"/>
		<polygon class="st0" points="19.8,0.3 14.8,0.3 5.9,12.7 14.8,25 20,25 11.1,12.7 		"/>
		<g>
			<defs>
				<rect id="SVGID_19_" x="4.3" y="0.3" width="1.5" height="24.7"/>
			</defs>
			<clipPath id="SVGID_2_">
				<use xlink:href="#SVGID_19_"  style="overflow:visible;"/>
			</clipPath>
			
				<linearGradient id="SVGID_3_" gradientUnits="userSpaceOnUse" x1="-205.0851" y1="275.13" x2="-204.4011" y2="275.13" gradientTransform="matrix(0 -36.0551 -36.0551 0 9924.8984 -7369.3735)">
				<stop  offset="0" style="stop-color:#F0E173"/>
				<stop  offset="0.2833" style="stop-color:#F0C334"/>
				<stop  offset="0.606" style="stop-color:#C79A32"/>
				<stop  offset="0.7855" style="stop-color:#F0C334"/>
				<stop  offset="1" style="stop-color:#976C32"/>
			</linearGradient>
			<rect x="4.3" y="0.3" class="st1" width="1.5" height="24.7"/>
		</g>
	</g>
	<g>
		<path class="st13" d="M144.5,14.2v11H141V0.4h9.4c2.4,0,4,0.6,5.2,1.6c1.5,1.3,2.4,3.2,2.4,5.3c0,2.1-1,4-2.4,5.3
			c-1.2,1-2.8,1.6-5.2,1.6H144.5z M150.2,10.8c1.7,0,2.6-0.4,3.3-1.1c0.6-0.6,1-1.5,1-2.4s-0.4-1.8-1-2.4c-0.6-0.7-1.6-1.1-3.3-1.1
			h-5.7v7.1H150.2z"/>
		<path class="st13" d="M164.3,22.2c-1.6-1.7-2.6-4-2.6-7.4V0.4h3.5V15c0,2.3,0.6,3.8,1.6,4.9c1.2,1.4,3.1,2.2,5.2,2.2
			c2.1,0,3.9-0.8,5.2-2.2c1-1.1,1.6-2.5,1.6-4.9V0.4h3.5v14.5c0,3.3-1,5.6-2.6,7.4c-1.9,2-4.6,3.3-7.7,3.3
			C168.9,25.5,166.1,24.3,164.3,22.2z"/>
		<path class="st13" d="M186.6,25.1V0.4h8.4c2.4,0,3.9,0.7,5.1,1.7c1.3,1.2,2.1,2.9,2.1,4.7c0,1.7-0.8,3.3-1.9,4.4
			c2.3,1.2,4.1,3.7,4.1,6.5c0,2.3-1.1,4.4-2.7,5.7c-1.3,1.1-2.9,1.7-5.4,1.7H186.6z M194.4,10.1c2,0,2.8-0.4,3.4-1
			c0.5-0.6,0.8-1.3,0.8-2.2s-0.3-1.6-0.8-2.2c-0.6-0.6-1.4-1-3.4-1h-4.2v6.4H194.4z M195.5,21.8c2.2,0,3.3-0.5,4.1-1.3
			c0.7-0.7,1.2-1.8,1.2-2.9s-0.5-2.1-1.2-2.9c-0.8-0.8-1.8-1.3-4.1-1.3h-5.4v8.3H195.5z"/>
		<path class="st13" d="M211.6,21.8h11v3.4h-14.5V0.4h3.5V21.8z"/>
		<path class="st13" d="M246.5,0c3.5,0,6.9,1.5,9.1,3.8l-2.4,2.3c-1.5-1.6-4-2.8-6.7-2.8c-5.1,0-9,4-9,9.4c0,5.6,4,9.4,9.3,9.4
			c3.3,0,5.7-1.8,7.1-3.5l2.5,2.3c-2.1,2.7-5.8,4.6-9.6,4.6c-7.4,0-12.9-5.4-12.9-12.7C233.9,5.6,239.3,0,246.5,0z"/>
	</g>
	<g>
		<rect x="226.1" y="0.3" class="st13" width="3.5" height="3.5"/>
		<rect x="226.1" y="14.6" class="st13" width="3.5" height="3.5"/>
		<rect x="226.1" y="7.4" class="st13" width="3.5" height="3.5"/>
		<rect x="226.1" y="21.6" class="st13" width="3.5" height="3.5"/>
	</g>
</g>
</svg>
