<?xml version="1.0" encoding="utf-8"?>
<!-- Generator: Adobe Illustrator 19.1.0, SVG Export Plug-In . SVG Version: 6.00 Build 0)  -->
<svg version="1.1" id="Layer_1" xmlns="http://www.w3.org/2000/svg" xmlns:xlink="http://www.w3.org/1999/xlink" x="0px" y="0px"
	 viewBox="0 0 255.9 30.7" style="enable-background:new 0 0 255.9 30.7;" xml:space="preserve">
<style type="text/css">
	.st0{fill:#1D1D1B;}
	.st1{clip-path:url(#SVGID_2_);fill:url(#SVGID_3_);}
	.st2{fill:#8990C7;}
	.st3{clip-path:url(#SVGID_5_);fill:url(#SVGID_6_);}
	.st4{clip-path:url(#SVGID_8_);fill:url(#SVGID_9_);}
	.st5{fill:#EB6728;}
	.st6{clip-path:url(#SVGID_11_);fill:url(#SVGID_12_);}
	.st7{clip-path:url(#SVGID_14_);fill:url(#SVGID_15_);}
	.st8{fill:#00AEC2;}
	.st9{clip-path:url(#SVGID_17_);fill:url(#SVGID_18_);}
	.st10{fill:#E6334C;}
	.st11{clip-path:url(#SVGID_20_);fill:url(#SVGID_21_);}
	.st12{fill:#B3B3B3;}
	.st13{clip-path:url(#SVGID_23_);fill:url(#SVGID_24_);}
	.st14{fill:#884E98;}
	.st15{clip-path:url(#SVGID_26_);fill:url(#SVGID_27_);}
	.st16{fill:#E5007E;}
	.st17{clip-path:url(#SVGID_29_);fill:url(#SVGID_30_);}
	.st18{fill:#E20613;}
	.st19{clip-path:url(#SVGID_32_);fill:url(#SVGID_33_);}
	.st20{fill:#D3D800;}
	.st21{clip-path:url(#SVGID_35_);fill:url(#SVGID_36_);}
	.st22{fill:#F29100;}
	.st23{clip-path:url(#SVGID_38_);fill:url(#SVGID_39_);}
	.st24{fill:#93C01F;}
	.st25{fill:#0075BE;}
</style>
<g>
	<g>
		<path class="st0" d="M93.1,21.2l3.2-9.8l3.2,9.8H93.1z M93.8,6l-8.3,24.7H90l1.8-5.4h8.9l1.7,5.4h4.6L98.8,6H93.8z"/>
		<path class="st0" d="M29.9,21.2l3.2-9.8l3.2,9.8H29.9z M30.7,6l-8.3,24.7h4.6l1.8-5.4h8.9l1.7,5.4h4.6L35.6,6H30.7z"/>
		<path class="st0" d="M114,10l5,0c4,0,4.6,2.3,4.6,3.6c0,3.1-2.9,3.6-4.6,3.6h-5V10z M122.4,20.8c3.5-0.9,5.4-3.5,5.4-7.2
			c0-4.6-3.4-7.6-8.6-7.6h-9.5v24.7h4.3v-9.5h3.4l7,9.5h5.4L122.4,20.8z"/>
		<polygon class="st0" points="62.5,22.8 50.8,6 46.5,6 46.5,30.6 50.8,30.6 50.8,13.8 62.5,30.6 66.7,30.6 66.7,6 62.5,6 		"/>
		<polygon class="st0" points="89.6,6 69.9,6 69.9,10 77,10 77,30.6 81.3,30.6 81.3,10 88,10 		"/>
		
			<rect x="-10.2" y="16.2" transform="matrix(-2.773694e-04 -1 1 -2.773694e-04 -16.163 20.456)" class="st0" width="24.7" height="4.3"/>
		<polygon class="st0" points="19.8,6 14.8,6 5.9,18.3 14.8,30.6 20,30.6 11.1,18.3 		"/>
		<g>
			<defs>
				<rect id="SVGID_10_" x="4.3" y="6" width="1.5" height="24.7"/>
			</defs>
			<clipPath id="SVGID_2_">
				<use xlink:href="#SVGID_10_"  style="overflow:visible;"/>
			</clipPath>
			
				<linearGradient id="SVGID_3_" gradientUnits="userSpaceOnUse" x1="-200.0392" y1="462.703" x2="-199.3552" y2="462.703" gradientTransform="matrix(0 -36.0551 -36.0551 0 16687.8672 -7181.8003)">
				<stop  offset="0" style="stop-color:#F0E173"/>
				<stop  offset="0.2833" style="stop-color:#F0C334"/>
				<stop  offset="0.606" style="stop-color:#C79A32"/>
				<stop  offset="0.7855" style="stop-color:#F0C334"/>
				<stop  offset="1" style="stop-color:#976C32"/>
			</linearGradient>
			<rect x="4.3" y="6" class="st1" width="1.5" height="24.7"/>
		</g>
	</g>
</g>
<g>
	<path class="st25" d="M144.2,18.5v11.4h-3.5V5.6h8.5c2.2,0,3.6,0.5,4.7,1.4c1.5,1.2,2.4,3,2.4,5c0,2-0.9,3.8-2.4,5
		c-0.8,0.6-1.6,1.1-2.8,1.3l8.7,11.6h-4.2L147,18.5H144.2z M149.1,15.2c1.6,0,2.4-0.3,2.9-0.9c0.6-0.6,0.9-1.4,0.9-2.2
		s-0.3-1.7-0.9-2.2c-0.6-0.6-1.4-0.9-2.9-0.9h-4.9v6.2H149.1z"/>
	<path class="st25" d="M173.7,15.2v3.3h-8v8.1h10.7v3.3h-14.2V5.6h13.9v3.3h-10.4v6.2H173.7z"/>
	<path class="st25" d="M179.1,5.6h16.6v3.3h-6.6v21h-3.5v-21h-6.6V5.6z"/>
	<path class="st25" d="M209.9,23.7h-10.2l-2.5,6.2h-3.6l10.1-24.3h2.4l10.1,24.3h-3.6L209.9,23.7z M201.1,20.4h7.5l-3.7-9
		L201.1,20.4z"/>
	<path class="st25" d="M219.4,5.6h3.5v24.3h-3.5V5.6z"/>
	<path class="st25" d="M230.4,26.6h10.7v3.3H227V5.6h3.5V26.6z"/>
	<g>
		<g>
			<polygon class="st25" points="249.2,3.9 247.9,1.8 244.9,3.5 244.9,0 242.4,0 242.4,3.5 239.3,1.8 238.1,3.9 241.2,5.7 
				238.1,7.4 239.3,9.6 242.4,7.8 242.4,11.3 244.9,11.3 244.9,7.8 247.9,9.6 249.2,7.4 246.1,5.7 			"/>
		</g>
	</g>
</g>
</svg>
