<?xml version="1.0" encoding="utf-8"?>
<!-- Generator: Adobe Illustrator 19.1.0, SVG Export Plug-In . SVG Version: 6.00 Build 0)  -->
<svg version="1.1" id="Layer_1" xmlns="http://www.w3.org/2000/svg" xmlns:xlink="http://www.w3.org/1999/xlink" x="0px" y="0px"
	 viewBox="112 13.8 273.4 25.2" style="enable-background:new 112 13.8 273.4 25.2;" xml:space="preserve">
<style type="text/css">
	.st0{fill:#FFFFFF;}
	.st1{clip-path:url(#SVGID_2_);fill:url(#SVGID_3_);}
	.st2{fill:#E6334C;}
</style>
<path class="st0" d="M205.1,29.6l3.2-9.8l3.2,9.8H205.1z M205.8,14.4l-8.3,24.7h4.5l1.8-5.4h8.9l1.7,5.4h4.6l-8.2-24.7H205.8z"/>
<path class="st0" d="M141.9,29.6l3.2-9.8l3.2,9.8H141.9z M142.7,14.4l-8.3,24.7h4.6l1.8-5.4h8.9l1.7,5.4h4.6l-8.4-24.7H142.7z"/>
<path class="st0" d="M226,18.4h5c4,0,4.6,2.3,4.6,3.6c0,3.1-2.9,3.6-4.6,3.6h-5V18.4z M234.4,29.2c3.5-0.9,5.4-3.5,5.4-7.2
	c0-4.6-3.4-7.6-8.6-7.6h-9.5v24.7h4.3v-9.5h3.4l7,9.5h5.4L234.4,29.2z"/>
<polygon class="st0" points="174.5,31.2 162.8,14.4 158.5,14.4 158.5,39 162.8,39 162.8,22.2 174.5,39 178.7,39 178.7,14.4 
	174.5,14.4 "/>
<polygon class="st0" points="201.6,14.4 181.9,14.4 181.9,18.4 189,18.4 189,39 193.3,39 193.3,18.4 200,18.4 "/>
<rect x="101.8" y="24.5" transform="matrix(2.773694e-04 1 -1 2.773694e-04 140.8556 -87.5153)" class="st0" width="24.7" height="4.3"/>
<polygon class="st0" points="131.8,14.4 126.8,14.4 117.9,26.7 126.8,39 132,39 123.1,26.7 "/>
<g>
	<g>
		<defs>
			<rect id="SVGID_1_" x="116.3" y="14.4" width="1.5" height="24.7"/>
		</defs>
		<clipPath id="SVGID_2_">
			<use xlink:href="#SVGID_1_"  style="overflow:visible;"/>
		</clipPath>
		
			<linearGradient id="SVGID_3_" gradientUnits="userSpaceOnUse" x1="20.2825" y1="-285.9746" x2="20.9665" y2="-285.9746" gradientTransform="matrix(0 -36.0551 36.0551 0 10427.8945 770.3068)">
			<stop  offset="0" style="stop-color:#F0E173"/>
			<stop  offset="0.2833" style="stop-color:#F0C334"/>
			<stop  offset="0.606" style="stop-color:#C79A32"/>
			<stop  offset="0.7855" style="stop-color:#F0C334"/>
			<stop  offset="1" style="stop-color:#976C32"/>
		</linearGradient>
		<rect x="116.3" y="14.4" class="st1" width="1.5" height="24.7"/>
	</g>
</g>
<g>
	<path class="st2" d="M253,13.8v24.8h3.5V26.9v-3.3v-9.8H253z M270.4,13.8v9.8V27v11.7h3.5V13.8H270.4z"/>
	<polygon class="st2" points="279.5,13.8 279.5,38.6 294,38.6 294,35.3 283,35.3 283,26.9 291.2,26.9 291.2,23.6 283,23.6 283,17.2 
		293.7,17.2 293.7,13.8 	"/>
	<path class="st2" d="M307,19.7l3.8,9.2h-7.7L307,19.7z M305.7,13.8l-10.3,24.8h3.7l2.6-6.4h10.5l2.6,6.4h3.7l-10.3-24.8H305.7z"/>
	<polygon class="st2" points="321,13.8 321,38.6 335.5,38.6 335.5,35.3 324.5,35.3 324.5,13.8 	"/>
	<polygon class="st2" points="333.8,13.8 333.8,17.2 340.5,17.2 340.5,38.6 344,38.6 344,17.2 350.8,17.2 350.8,13.8 	"/>
	<polygon class="st2" points="371,13.8 371,24.2 357.2,24.2 357.2,13.8 353.6,13.8 353.6,38.6 357.2,38.6 357.2,27.5 371,27.5 
		371,38.6 374.5,38.6 374.5,13.8 	"/>
	<polyline class="st2" points="271.4,27.4 255.9,27.4 255.9,24 271.4,24 	"/>
	<rect x="355.9" y="24.1" class="st2" width="29.6" height="3.4"/>
</g>
</svg>
