<?xml version="1.0" encoding="utf-8"?>
<!-- Generator: Adobe Illustrator 19.1.0, SVG Export Plug-In . SVG Version: 6.00 Build 0)  -->
<svg version="1.1" id="Layer_1" xmlns="http://www.w3.org/2000/svg" xmlns:xlink="http://www.w3.org/1999/xlink" x="0px" y="0px"
	 viewBox="0 0 363.9 25.1" style="enable-background:new 0 0 363.9 25.1;" xml:space="preserve">
<style type="text/css">
	.st0{fill:#1D1D1B;}
	.st1{clip-path:url(#SVGID_2_);fill:url(#SVGID_3_);}
	.st2{fill:#8990C7;}
	.st3{clip-path:url(#SVGID_5_);fill:url(#SVGID_6_);}
	.st4{clip-path:url(#SVGID_8_);fill:url(#SVGID_9_);}
	.st5{fill:#EB6728;}
	.st6{clip-path:url(#SVGID_11_);fill:url(#SVGID_12_);}
	.st7{fill:#0075BE;}
	.st8{clip-path:url(#SVGID_14_);fill:url(#SVGID_15_);}
	.st9{fill:#009CDE;}
	.st10{clip-path:url(#SVGID_17_);fill:url(#SVGID_18_);}
	.st11{fill:#E6334C;}
	.st12{clip-path:url(#SVGID_20_);fill:url(#SVGID_21_);}
	.st13{fill:#00AA95;}
	.st14{clip-path:url(#SVGID_23_);fill:url(#SVGID_24_);}
	.st15{fill:#884E98;}
	.st16{clip-path:url(#SVGID_26_);fill:url(#SVGID_27_);}
	.st17{fill:#E5007E;}
	.st18{clip-path:url(#SVGID_29_);fill:url(#SVGID_30_);}
	.st19{fill:#E20613;}
	.st20{clip-path:url(#SVGID_32_);fill:url(#SVGID_33_);}
	.st21{fill:#D3D800;}
	.st22{clip-path:url(#SVGID_35_);fill:url(#SVGID_36_);}
	.st23{fill:#9C9B9B;}
	.st24{fill:#F29100;}
	.st25{clip-path:url(#SVGID_38_);fill:url(#SVGID_39_);}
	.st26{fill:#93C01F;}
</style>
<g>
	<g>
		<path class="st0" d="M93.1,15.7l3.2-9.8l3.2,9.8H93.1z M93.8,0.4l-8.3,24.7H90l1.8-5.4h8.9l1.7,5.4h4.6L98.8,0.4H93.8z"/>
		<path class="st0" d="M29.9,15.7l3.2-9.8l3.2,9.8H29.9z M30.7,0.4l-8.3,24.7h4.6l1.8-5.4h8.9l1.7,5.4h4.6L35.6,0.4H30.7z"/>
		<path class="st0" d="M114,4.4l5,0c4,0,4.6,2.3,4.6,3.6c0,3.1-2.9,3.6-4.6,3.6h-5V4.4z M122.4,15.2c3.5-0.9,5.4-3.5,5.4-7.2
			c0-4.6-3.4-7.6-8.6-7.6h-9.5v24.7h4.3v-9.5h3.4l7,9.5h5.4L122.4,15.2z"/>
		<polygon class="st0" points="62.5,17.2 50.8,0.4 46.5,0.4 46.5,25.1 50.8,25.1 50.8,8.3 62.5,25.1 66.7,25.1 66.7,0.4 62.5,0.4 		
			"/>
		<polygon class="st0" points="89.6,0.4 69.9,0.4 69.9,4.4 77,4.4 77,25.1 81.3,25.1 81.3,4.4 88,4.4 		"/>
		
			<rect x="-10.2" y="10.6" transform="matrix(-2.773694e-04 -1 1 -2.773694e-04 -10.6012 14.8927)" class="st0" width="24.7" height="4.3"/>
		<polygon class="st0" points="19.8,0.4 14.8,0.4 5.9,12.7 14.8,25.1 20,25.1 11.1,12.7 		"/>
		<g>
			<defs>
				<rect id="SVGID_31_" x="4.3" y="0.4" width="1.5" height="24.7"/>
			</defs>
			<clipPath id="SVGID_2_">
				<use xlink:href="#SVGID_31_"  style="overflow:visible;"/>
			</clipPath>
			
				<linearGradient id="SVGID_3_" gradientUnits="userSpaceOnUse" x1="-210.0892" y1="-28.3368" x2="-209.4052" y2="-28.3368" gradientTransform="matrix(0 -36.0551 -36.0551 0 -1016.6374 -7549.7153)">
				<stop  offset="0" style="stop-color:#F0E173"/>
				<stop  offset="0.2833" style="stop-color:#F0C334"/>
				<stop  offset="0.606" style="stop-color:#C79A32"/>
				<stop  offset="0.7855" style="stop-color:#F0C334"/>
				<stop  offset="1" style="stop-color:#976C32"/>
			</linearGradient>
			<rect x="4.3" y="0.4" class="st1" width="1.5" height="24.7"/>
		</g>
	</g>
	<g>
		<g>
			<path class="st21" d="M149.1,24.6h-2.5L138.9,0h3.6l5.5,17.8L154,0h2.5l6,17.8L168,0h3.6l-7.7,24.6h-2.5l-6.1-18.2L149.1,24.6z"
				/>
			<path class="st21" d="M204.6,13v11.6h-3.5V0h8.6c2.2,0,3.7,0.5,4.8,1.4c1.5,1.2,2.4,3,2.4,5.1c0,2-0.9,3.9-2.4,5.1
				c-0.8,0.6-1.7,1.1-2.9,1.3l8.8,11.7h-4.3L207.4,13H204.6z M209.5,9.7c1.6,0,2.4-0.4,3-0.9c0.6-0.6,0.9-1.4,0.9-2.2
				s-0.4-1.7-0.9-2.2c-0.6-0.6-1.4-0.9-3-0.9h-4.9v6.3H209.5z"/>
			<path class="st21" d="M226.6,21.3h10.9v3.3h-14.4V0h3.5V21.3z"/>
			<path class="st21" d="M241.1,24.6V0h7.4c3.9,0,6.4,0.8,8.4,2.3c3,2.2,4.9,5.9,4.9,10s-1.9,7.7-4.9,10c-2,1.5-4.6,2.3-8.5,2.3
				H241.1z M255.4,5.4c-1.5-1.3-3.6-2.1-7-2.1h-3.7v17.9h3.7c3.4,0,5.5-0.7,7-2.1c1.9-1.7,3-4.1,3-6.9S257.2,7.1,255.4,5.4z"/>
			<path class="st21" d="M269.5,13.7v10.9H266V0h9.3c2.4,0,3.9,0.6,5.1,1.6c1.5,1.3,2.4,3.1,2.4,5.2c0,2.1-0.9,4-2.4,5.2
				c-1.2,1-2.7,1.6-5.1,1.6H269.5z M275.1,10.4c1.7,0,2.6-0.4,3.2-1.1c0.6-0.6,1-1.5,1-2.4s-0.4-1.8-1-2.4c-0.6-0.7-1.5-1.1-3.2-1.1
				h-5.6v7H275.1z"/>
			<path class="st21" d="M297.1,18.3h-10.4l-2.6,6.3h-3.7L290.7,0h2.5l10.2,24.6h-3.7L297.1,18.3z M288.2,14.9h7.6L292,5.8
				L288.2,14.9z"/>
			<path class="st21" d="M309.3,6.5v18.1h-3.5V0h2.5L323,18.1V0h3.5v24.6h-2.5L309.3,6.5z"/>
			<path class="st21" d="M342.8,9.7V13h-8.1v8.3h10.9v3.3h-14.4V0h14.1v3.3h-10.5v6.3H342.8z"/>
			<path class="st21" d="M353,21.3h10.9v3.3h-14.4V0h3.5V21.3z"/>
		</g>
		<g>
			<polygon class="st21" points="185.6,3.4 185.6,0 177.8,0 174.5,0 174.5,3.4 174.5,11.1 177.8,11.1 177.8,3.4 			"/>
			<polygon class="st21" points="193.5,13.5 193.5,21.2 185.7,21.2 185.7,24.6 193.5,24.6 196.8,24.6 196.8,21.2 196.8,13.5 			"/>
		</g>
	</g>
</g>
</svg>
