<?xml version="1.0" encoding="utf-8"?>
<!-- Generator: Adobe Illustrator 19.1.0, SVG Export Plug-In . SVG Version: 6.00 Build 0)  -->
<svg version="1.1" id="Layer_1" xmlns="http://www.w3.org/2000/svg" xmlns:xlink="http://www.w3.org/1999/xlink" x="0px" y="0px"
	 viewBox="0 0 242.2 24.8" style="enable-background:new 0 0 242.2 24.8;" xml:space="preserve">
<style type="text/css">
	.st0{fill:#1D1D1B;}
	.st1{clip-path:url(#SVGID_2_);fill:url(#SVGID_3_);}
	.st2{fill:#8990C7;}
	.st3{clip-path:url(#SVGID_5_);fill:url(#SVGID_6_);}
	.st4{clip-path:url(#SVGID_8_);fill:url(#SVGID_9_);}
	.st5{fill:#EB6728;}
	.st6{clip-path:url(#SVGID_11_);fill:url(#SVGID_12_);}
	.st7{clip-path:url(#SVGID_14_);fill:url(#SVGID_15_);}
	.st8{fill:#00AEC2;}
	.st9{clip-path:url(#SVGID_17_);fill:url(#SVGID_18_);}
	.st10{fill:#E6334C;}
	.st11{clip-path:url(#SVGID_20_);fill:url(#SVGID_21_);}
	.st12{fill:#B3B3B3;}
	.st13{clip-path:url(#SVGID_23_);fill:url(#SVGID_24_);}
	.st14{fill:#884E98;}
	.st15{clip-path:url(#SVGID_26_);fill:url(#SVGID_27_);}
	.st16{fill:#E5007E;}
	.st17{clip-path:url(#SVGID_29_);fill:url(#SVGID_30_);}
	.st18{fill:#E20613;}
	.st19{clip-path:url(#SVGID_32_);fill:url(#SVGID_33_);}
	.st20{fill:#D3D800;}
	.st21{clip-path:url(#SVGID_35_);fill:url(#SVGID_36_);}
	.st22{fill:#F29100;}
	.st23{clip-path:url(#SVGID_38_);fill:url(#SVGID_39_);}
	.st24{fill:#93C01F;}
	.st25{fill:#0075BE;}
</style>
<g>
	<path class="st0" d="M93.1,15.3l3.2-9.8l3.2,9.8H93.1z M93.8,0.1l-8.3,24.7H90l1.8-5.4h8.9l1.7,5.4h4.6L98.8,0.1H93.8z"/>
	<path class="st0" d="M29.9,15.3l3.2-9.8l3.2,9.8H29.9z M30.7,0.1l-8.3,24.7h4.6l1.8-5.4h8.9l1.7,5.4h4.6L35.6,0.1H30.7z"/>
	<path class="st0" d="M114,4.1l5,0c4,0,4.6,2.3,4.6,3.6c0,3.1-2.9,3.6-4.6,3.6h-5V4.1z M122.4,14.9c3.5-0.9,5.4-3.5,5.4-7.2
		c0-4.6-3.4-7.6-8.6-7.6h-9.5v24.7h4.3v-9.5h3.4l7,9.5h5.4L122.4,14.9z"/>
	<polygon class="st0" points="62.5,16.8 50.8,0.1 46.5,0.1 46.5,24.7 50.8,24.7 50.8,7.9 62.5,24.7 66.7,24.7 66.7,0.1 62.5,0.1 	
		"/>
	<polygon class="st0" points="89.6,0.1 69.9,0.1 69.9,4.1 77,4.1 77,24.7 81.3,24.7 81.3,4.1 88,4.1 	"/>
	
		<rect x="-10.2" y="10.2" transform="matrix(-2.773694e-04 -1 1 -2.773694e-04 -10.238 14.5293)" class="st0" width="24.7" height="4.3"/>
	<polygon class="st0" points="19.8,0.1 14.8,0.1 5.9,12.4 14.8,24.7 20,24.7 11.1,12.4 	"/>
	<g>
		<defs>
			<rect id="SVGID_13_" x="4.3" y="0.1" width="1.5" height="24.7"/>
		</defs>
		<clipPath id="SVGID_2_">
			<use xlink:href="#SVGID_13_"  style="overflow:visible;"/>
		</clipPath>
		
			<linearGradient id="SVGID_3_" gradientUnits="userSpaceOnUse" x1="-201.7209" y1="396.1414" x2="-201.0369" y2="396.1414" gradientTransform="matrix(0 -36.0551 -36.0551 0 14287.9795 -7248.3623)">
			<stop  offset="0" style="stop-color:#F0E173"/>
			<stop  offset="0.2833" style="stop-color:#F0C334"/>
			<stop  offset="0.606" style="stop-color:#C79A32"/>
			<stop  offset="0.7855" style="stop-color:#F0C334"/>
			<stop  offset="1" style="stop-color:#976C32"/>
		</linearGradient>
		<rect x="4.3" y="0.1" class="st1" width="1.5" height="24.7"/>
	</g>
</g>
<g>
	<g>
		<path class="st8" d="M154.2,19.4h-2.5l-7.2-11.3v16.5H141V0.1h2.5l9.5,15l9.5-15h2.5v24.6h-3.5V8.2L154.2,19.4z"/>
		<path class="st8" d="M181.3,9.8v3.3h-8.1v8.3h10.9v3.3h-14.4V0.1h14.1v3.3h-10.5v6.3H181.3z"/>
		<path class="st8" d="M212.6,0.1h3.5v24.6h-3.5V0.1z"/>
		<path class="st8" d="M236,18.4h-10.4l-2.6,6.3h-3.7l10.2-24.6h2.5l10.2,24.6h-3.7L236,18.4z M227,15.1h7.6l-3.8-9.1L227,15.1z"/>
	</g>
</g>
<path class="st8" d="M208.6,10.3l-0.3-0.2L190.7,0l-3,1.7v1.2v20.3l2.8,1.6h0.2h0.2l0.8-0.4l17.4-10v-3.5v-0.2v0L208.6,10.3z
	 M191.2,20.6V4.4l14,8.1L191.2,20.6z"/>
</svg>
