<?xml version="1.0" encoding="utf-8"?>
<!-- Generator: Adobe Illustrator 19.1.0, SVG Export Plug-In . SVG Version: 6.00 Build 0)  -->
<svg version="1.1" id="Layer_1" xmlns="http://www.w3.org/2000/svg" xmlns:xlink="http://www.w3.org/1999/xlink" x="0px" y="0px"
	 viewBox="0 0 273.4 25.2" style="enable-background:new 0 0 273.4 25.2;" xml:space="preserve">
<style type="text/css">
	.st0{fill:#1D1D1B;}
	.st1{clip-path:url(#SVGID_2_);fill:url(#SVGID_3_);}
	.st2{fill:#8990C7;}
	.st3{clip-path:url(#SVGID_5_);fill:url(#SVGID_6_);}
	.st4{clip-path:url(#SVGID_8_);fill:url(#SVGID_9_);}
	.st5{fill:#EB6728;}
	.st6{clip-path:url(#SVGID_11_);fill:url(#SVGID_12_);}
	.st7{fill:#0075BE;}
	.st8{clip-path:url(#SVGID_14_);fill:url(#SVGID_15_);}
	.st9{fill:#009CDE;}
	.st10{clip-path:url(#SVGID_17_);fill:url(#SVGID_18_);}
	.st11{fill:#E6334C;}
	.st12{clip-path:url(#SVGID_20_);fill:url(#SVGID_21_);}
	.st13{fill:#00AA95;}
	.st14{clip-path:url(#SVGID_23_);fill:url(#SVGID_24_);}
	.st15{fill:#884E98;}
	.st16{clip-path:url(#SVGID_26_);fill:url(#SVGID_27_);}
	.st17{fill:#E5007E;}
	.st18{clip-path:url(#SVGID_29_);fill:url(#SVGID_30_);}
	.st19{fill:#E20613;}
	.st20{clip-path:url(#SVGID_32_);fill:url(#SVGID_33_);}
	.st21{fill:#00A139;}
	.st22{clip-path:url(#SVGID_35_);fill:url(#SVGID_36_);}
	.st23{fill:#9C9B9B;}
	.st24{fill:#F29100;}
	.st25{clip-path:url(#SVGID_38_);fill:url(#SVGID_39_);}
	.st26{fill:#93C01F;}
</style>
<g>
	<g>
		<path class="st0" d="M93.1,15.8l3.2-9.8l3.2,9.8H93.1z M93.8,0.6l-8.3,24.7H90l1.8-5.4h8.9l1.7,5.4h4.6L98.8,0.6H93.8z"/>
		<path class="st0" d="M29.9,15.8l3.2-9.8l3.2,9.8H29.9z M30.7,0.6l-8.3,24.7h4.6l1.8-5.4h8.9l1.7,5.4h4.6L35.6,0.6H30.7z"/>
		<path class="st0" d="M114,4.6l5,0c4,0,4.6,2.3,4.6,3.6c0,3.1-2.9,3.6-4.6,3.6h-5V4.6z M122.4,15.4c3.5-0.9,5.4-3.5,5.4-7.2
			c0-4.6-3.4-7.6-8.6-7.6h-9.5v24.7h4.3v-9.5h3.4l7,9.5h5.4L122.4,15.4z"/>
		<polygon class="st0" points="62.5,17.4 50.8,0.6 46.5,0.6 46.5,25.2 50.8,25.2 50.8,8.4 62.5,25.2 66.7,25.2 66.7,0.6 62.5,0.6 		
			"/>
		<polygon class="st0" points="89.6,0.6 69.9,0.6 69.9,4.6 77,4.6 77,25.2 81.3,25.2 81.3,4.6 88,4.6 		"/>
		
			<rect x="-10.2" y="10.8" transform="matrix(-2.773694e-04 -1 1 -2.773694e-04 -10.7518 15.0433)" class="st0" width="24.7" height="4.3"/>
		<polygon class="st0" points="19.8,0.6 14.8,0.6 5.9,12.9 14.8,25.2 20,25.2 11.1,12.9 		"/>
		<g>
			<defs>
				<rect id="SVGID_16_" x="4.3" y="0.6" width="1.5" height="24.7"/>
			</defs>
			<clipPath id="SVGID_2_">
				<use xlink:href="#SVGID_16_"  style="overflow:visible;"/>
			</clipPath>
			
				<linearGradient id="SVGID_3_" gradientUnits="userSpaceOnUse" x1="-203.4124" y1="335.668" x2="-202.7284" y2="335.668" gradientTransform="matrix(0 -36.0551 -36.0551 0 12107.6035 -7308.8354)">
				<stop  offset="0" style="stop-color:#F0E173"/>
				<stop  offset="0.2833" style="stop-color:#F0C334"/>
				<stop  offset="0.606" style="stop-color:#C79A32"/>
				<stop  offset="0.7855" style="stop-color:#F0C334"/>
				<stop  offset="1" style="stop-color:#976C32"/>
			</linearGradient>
			<rect x="4.3" y="0.6" class="st1" width="1.5" height="24.7"/>
		</g>
	</g>
	<g>
		<path class="st11" d="M141,0v24.8h3.5V13.1V9.8V0H141z M158.4,0v9.8v3.4v11.7h3.5V0H158.4z"/>
		<polygon class="st11" points="167.5,0 167.5,24.8 182,24.8 182,21.5 171,21.5 171,13.1 179.2,13.1 179.2,9.8 171,9.8 171,3.4 
			181.7,3.4 181.7,0 		"/>
		<path class="st11" d="M195,5.9l3.8,9.2h-7.7L195,5.9z M193.7,0l-10.3,24.8h3.7l2.6-6.4h10.5l2.6,6.4h3.7L196.2,0H193.7z"/>
		<polygon class="st11" points="209,0 209,24.8 223.5,24.8 223.5,21.5 212.5,21.5 212.5,0 		"/>
		<polygon class="st11" points="221.8,0 221.8,3.4 228.5,3.4 228.5,24.8 232,24.8 232,3.4 238.8,3.4 238.8,0 		"/>
		<polygon class="st11" points="259,0 259,10.4 245.2,10.4 245.2,0 241.6,0 241.6,24.8 245.2,24.8 245.2,13.7 259,13.7 259,24.8 
			262.5,24.8 262.5,0 		"/>
		<polyline class="st11" points="159.4,13.6 143.9,13.6 143.9,10.2 159.4,10.2 		"/>
		<rect x="243.9" y="10.3" class="st11" width="29.6" height="3.4"/>
	</g>
</g>
</svg>
