<?xml version="1.0" encoding="utf-8"?>
<!-- Generator: Adobe Illustrator 19.1.0, SVG Export Plug-In . SVG Version: 6.00 Build 0)  -->
<svg version="1.1" id="Layer_1" xmlns="http://www.w3.org/2000/svg" xmlns:xlink="http://www.w3.org/1999/xlink" x="0px" y="0px"
	 viewBox="0 0 351.2 25" style="enable-background:new 0 0 351.2 25;" xml:space="preserve">
<style type="text/css">
	.st0{fill:#1D1D1B;}
	.st1{clip-path:url(#SVGID_2_);fill:url(#SVGID_3_);}
	.st2{fill:#8990C7;}
	.st3{clip-path:url(#SVGID_5_);fill:url(#SVGID_6_);}
	.st4{clip-path:url(#SVGID_8_);fill:url(#SVGID_9_);}
	.st5{fill:#EB6728;}
	.st6{clip-path:url(#SVGID_11_);fill:url(#SVGID_12_);}
	.st7{fill:#0075BE;}
	.st8{clip-path:url(#SVGID_14_);fill:url(#SVGID_15_);}
	.st9{fill:#009CDE;}
	.st10{clip-path:url(#SVGID_17_);fill:url(#SVGID_18_);}
	.st11{fill:#E6334C;}
	.st12{clip-path:url(#SVGID_20_);fill:url(#SVGID_21_);}
	.st13{fill:#00AA95;}
	.st14{clip-path:url(#SVGID_23_);fill:url(#SVGID_24_);}
	.st15{fill:#884E98;}
	.st16{clip-path:url(#SVGID_26_);fill:url(#SVGID_27_);}
	.st17{fill:#E5007E;}
	.st18{clip-path:url(#SVGID_29_);fill:url(#SVGID_30_);}
	.st19{fill:#E20613;}
	.st20{clip-path:url(#SVGID_32_);fill:url(#SVGID_33_);}
	.st21{fill:#00A139;}
	.st22{clip-path:url(#SVGID_35_);fill:url(#SVGID_36_);}
	.st23{fill:#9C9B9B;}
	.st24{fill:#F29100;}
	.st25{clip-path:url(#SVGID_38_);fill:url(#SVGID_39_);}
	.st26{fill:#93C01F;}
</style>
<g>
	<path class="st0" d="M93.1,15.3l3.2-9.8l3.2,9.8H93.1z M93.8,0l-8.3,24.7H90l1.8-5.4h8.9l1.7,5.4h4.6L98.8,0H93.8z"/>
	<path class="st0" d="M29.9,15.3l3.2-9.8l3.2,9.8H29.9z M30.7,0l-8.3,24.7h4.6l1.8-5.4h8.9l1.7,5.4h4.6L35.6,0H30.7z"/>
	<path class="st0" d="M114,4l5,0c4,0,4.6,2.3,4.6,3.6c0,3.1-2.9,3.6-4.6,3.6h-5V4z M122.4,14.8c3.5-0.9,5.4-3.5,5.4-7.2
		c0-4.6-3.4-7.6-8.6-7.6h-9.5v24.7h4.3v-9.5h3.4l7,9.5h5.4L122.4,14.8z"/>
	<polygon class="st0" points="62.5,16.8 50.8,0 46.5,0 46.5,24.7 50.8,24.7 50.8,7.9 62.5,24.7 66.7,24.7 66.7,0 62.5,0 	"/>
	<polygon class="st0" points="89.6,0 69.9,0 69.9,4 77,4 77,24.7 81.3,24.7 81.3,4 88,4 	"/>
	
		<rect x="-10.2" y="10.2" transform="matrix(-2.773694e-04 -1 1 -2.773694e-04 -10.1868 14.4781)" class="st0" width="24.7" height="4.3"/>
	<polygon class="st0" points="19.8,0 14.8,0 5.9,12.3 14.8,24.7 20,24.7 11.1,12.3 	"/>
	<g>
		<defs>
			<rect id="SVGID_22_" x="4.3" width="1.5" height="24.7"/>
		</defs>
		<clipPath id="SVGID_2_">
			<use xlink:href="#SVGID_22_"  style="overflow:visible;"/>
		</clipPath>
		
			<linearGradient id="SVGID_3_" gradientUnits="userSpaceOnUse" x1="-206.7652" y1="214.2192" x2="-206.0812" y2="214.2192" gradientTransform="matrix(0 -36.0551 -36.0551 0 7728.751 -7430.2842)">
			<stop  offset="0" style="stop-color:#F0E173"/>
			<stop  offset="0.2833" style="stop-color:#F0C334"/>
			<stop  offset="0.606" style="stop-color:#C79A32"/>
			<stop  offset="0.7855" style="stop-color:#F0C334"/>
			<stop  offset="1" style="stop-color:#976C32"/>
		</linearGradient>
		<rect x="4.3" y="0" class="st1" width="1.5" height="24.7"/>
	</g>
	<g>
		<g>
			<path class="st15" d="M164.3,24.7V0.1h7.4c3.9,0,6.4,0.8,8.4,2.3c3,2.2,4.9,5.9,4.9,10s-1.9,7.7-4.9,10c-2,1.5-4.6,2.3-8.5,2.3
				H164.3z M178.5,5.5c-1.5-1.3-3.6-2.1-7-2.1h-3.7v17.9h3.7c3.4,0,5.5-0.7,7-2.1c1.9-1.7,3-4.1,3-6.9S180.4,7.1,178.5,5.5z"/>
			<path class="st15" d="M188.4,24.7V0.1h7.4c3.9,0,6.4,0.8,8.4,2.3c3,2.2,4.9,5.9,4.9,10s-1.9,7.7-4.9,10c-2,1.5-4.6,2.3-8.5,2.3
				H188.4z M202.6,5.5c-1.5-1.3-3.6-2.1-7-2.1h-3.7v17.9h3.7c3.4,0,5.5-0.7,7-2.1c1.9-1.7,3-4.1,3-6.9S204.5,7.1,202.6,5.5z"/>
			<path class="st15" d="M224,9.7v3.3h-8.1v8.3h10.9v3.3h-14.4V0.1h14.1v3.3h-10.5v6.3H224z"/>
			<path class="st15" d="M230.8,24.7V0.1h7.4c3.9,0,6.4,0.8,8.4,2.3c3,2.2,4.9,5.9,4.9,10s-1.9,7.7-4.9,10c-2,1.5-4.6,2.3-8.5,2.3
				H230.8z M245.1,5.5c-1.5-1.3-3.6-2.1-7-2.1h-3.7v17.9h3.7c3.4,0,5.5-0.7,7-2.1c1.9-1.7,3-4.1,3-6.9S246.9,7.1,245.1,5.5z"/>
			<path class="st15" d="M287.3,18.3H277l-2.6,6.3h-3.7l10.2-24.6h2.5l10.2,24.6h-3.7L287.3,18.3z M278.4,15h7.6l-3.8-9.1L278.4,15z
				"/>
			<path class="st15" d="M299.9,21.3h10.9v3.3h-14.4V0.1h3.5V21.3z"/>
			<path class="st15" d="M315,21.8c-1.6-1.7-2.6-4-2.6-7.3V0.1h3.5v14.6c0,2.3,0.6,3.8,1.5,4.8c1.2,1.4,3.1,2.2,5.1,2.2
				c2.1,0,3.9-0.8,5.1-2.2c1-1.1,1.5-2.5,1.5-4.8V0.1h3.5v14.4c0,3.3-1,5.6-2.6,7.3c-1.9,2-4.6,3.2-7.6,3.2S316.9,23.8,315,21.8z"/>
			<path class="st15" d="M348.3,9.7v3.3h-8.1v8.3h10.9v3.3h-14.4V0.1h14.1v3.3h-10.5v6.3H348.3z"/>
		</g>
		<polygon class="st15" points="149,0.2 138.8,24.8 142.5,24.8 150.3,6 158,24.8 161.7,24.8 151.5,0.2 		"/>
		<polygon class="st15" points="264.8,24.7 275,0.1 271.3,0.1 263.6,18.9 255.8,0.1 252.2,0.1 262.3,24.7 		"/>
	</g>
</g>
</svg>
