<?xml version="1.0" encoding="utf-8"?>
<!-- Generator: Adobe Illustrator 19.1.0, SVG Export Plug-In . SVG Version: 6.00 Build 0)  -->
<svg version="1.1" id="Layer_1" xmlns="http://www.w3.org/2000/svg" xmlns:xlink="http://www.w3.org/1999/xlink" x="0px" y="0px"
	 viewBox="0 0 420.4 33.2" style="enable-background:new 0 0 420.4 33.2;" xml:space="preserve">
<style type="text/css">
	.st0{fill:#1D1D1B;}
	.st1{clip-path:url(#SVGID_2_);fill:url(#SVGID_3_);}
	.st2{fill:#8990C7;}
	.st3{clip-path:url(#SVGID_5_);fill:url(#SVGID_6_);}
	.st4{clip-path:url(#SVGID_8_);fill:url(#SVGID_9_);}
	.st5{fill:#EB6728;}
	.st6{clip-path:url(#SVGID_11_);fill:url(#SVGID_12_);}
	.st7{clip-path:url(#SVGID_14_);fill:url(#SVGID_15_);}
	.st8{fill:#00AEC2;}
	.st9{clip-path:url(#SVGID_17_);fill:url(#SVGID_18_);}
	.st10{fill:#E6334C;}
	.st11{clip-path:url(#SVGID_20_);fill:url(#SVGID_21_);}
	.st12{fill:#B3B3B3;}
	.st13{clip-path:url(#SVGID_23_);fill:url(#SVGID_24_);}
	.st14{fill:#884E98;}
	.st15{clip-path:url(#SVGID_26_);fill:url(#SVGID_27_);}
	.st16{fill:#E5007E;}
	.st17{clip-path:url(#SVGID_29_);fill:url(#SVGID_30_);}
	.st18{fill:#E20613;}
	.st19{clip-path:url(#SVGID_32_);fill:url(#SVGID_33_);}
	.st20{fill:#D3D800;}
	.st21{clip-path:url(#SVGID_35_);fill:url(#SVGID_36_);}
	.st22{fill:#F29100;}
	.st23{clip-path:url(#SVGID_38_);fill:url(#SVGID_39_);}
	.st24{fill:#93C01F;}
	.st25{fill:#0075BE;}
</style>
<g>
	<path class="st0" d="M93.2,23.5l3.2-9.8l3.2,9.8H93.2z M94,8.2l-8.4,24.7h4.6l1.8-5.4h8.9l1.7,5.4h4.6L98.9,8.2H94z"/>
	<path class="st0" d="M30,23.5l3.2-9.8l3.2,9.8H30z M30.7,8.2l-8.4,24.7h4.6l1.8-5.4h8.9l1.7,5.4H44L35.7,8.2H30.7z"/>
	<path class="st0" d="M114.2,12.2l5,0c4,0,4.6,2.3,4.6,3.6c0,3.1-2.9,3.6-4.6,3.6h-5V12.2z M122.6,23c3.5-0.9,5.4-3.5,5.4-7.3
		c0-4.6-3.4-7.6-8.6-7.6h-9.5v24.7h4.3v-9.5h3.4l7,9.5h5.4L122.6,23z"/>
	<polygon class="st0" points="62.6,25 50.9,8.2 46.6,8.2 46.6,32.9 50.9,32.9 50.9,16 62.6,32.9 66.8,32.9 66.8,8.2 62.6,8.2 	"/>
	<polygon class="st0" points="89.7,8.2 70,8.2 70,12.2 77.1,12.2 77.1,32.9 81.5,32.9 81.5,12.2 88.1,12.2 	"/>
	
		<rect x="-10.2" y="18.4" transform="matrix(-2.773694e-04 -1 1 -2.773694e-04 -18.374 22.6743)" class="st0" width="24.7" height="4.3"/>
	<polygon class="st0" points="19.8,8.2 14.8,8.2 5.9,20.5 14.8,32.9 20,32.9 11.1,20.5 	"/>
	<g>
		<defs>
			<rect id="SVGID_37_" x="4.3" y="8.2" width="1.5" height="24.7"/>
		</defs>
		<clipPath id="SVGID_2_">
			<use xlink:href="#SVGID_37_"  style="overflow:visible;"/>
		</clipPath>
		
			<linearGradient id="SVGID_3_" gradientUnits="userSpaceOnUse" x1="-198.3692" y1="525.6548" x2="-197.6842" y2="525.6548" gradientTransform="matrix(0 -36.0551 -36.0551 0 18957.6094 -7119.3574)">
			<stop  offset="0" style="stop-color:#F0E173"/>
			<stop  offset="0.2833" style="stop-color:#F0C334"/>
			<stop  offset="0.606" style="stop-color:#C79A32"/>
			<stop  offset="0.7855" style="stop-color:#F0C334"/>
			<stop  offset="1" style="stop-color:#976C32"/>
		</linearGradient>
		<rect x="4.3" y="8.2" class="st1" width="1.5" height="24.7"/>
	</g>
	<g>
		<path class="st24" d="M154.5,27.6h-2.5l-7.2-11.3v16.6h-3.5V8.2h2.5l9.5,15l9.5-15h2.5v24.6h-3.5V16.3L154.5,27.6z"/>
		<path class="st24" d="M180.2,32.9V8.2h3.5v21.3"/>
		<path class="st24" d="M207.8,32.9h-2.5l-7.7-24.6h3.6l5.5,17.8l6-17.8h2.5l6,17.8l5.5-17.8h3.6l-7.7,24.6h-2.5l-6.2-18.2
			L207.8,32.9z"/>
		<path class="st24" d="M243.8,26.5h-10.4l-2.6,6.3h-3.7l10.2-24.6h2.5l10.2,24.6h-3.7L243.8,26.5z M234.9,23.2h7.6l-3.8-9.1
			L234.9,23.2z"/>
		<path class="st24" d="M256.3,21.3v11.6h-3.5V8.2h8.6c2.3,0,3.7,0.5,4.8,1.4c1.5,1.2,2.4,3,2.4,5.1c0,2-1,3.9-2.4,5.1
			c-0.8,0.6-1.7,1.1-2.9,1.3l8.8,11.8h-4.3l-8.8-11.6H256.3z M261.2,17.9c1.6,0,2.4-0.4,3-0.9c0.6-0.6,0.9-1.4,0.9-2.3
			s-0.4-1.7-0.9-2.3c-0.6-0.6-1.4-0.9-3-0.9h-4.9v6.3H261.2z"/>
		<path class="st24" d="M274.5,32.9V8.2h7.4c3.9,0,6.4,0.8,8.4,2.3c3,2.3,4.9,5.9,4.9,10s-1.9,7.7-4.9,10c-2,1.5-4.6,2.3-8.5,2.3
			H274.5z M288.7,13.7c-1.5-1.3-3.6-2.1-7-2.1H278v17.9h3.7c3.4,0,5.5-0.7,7-2.1c1.9-1.7,3-4.2,3-6.9S290.6,15.3,288.7,13.7z"/>
		<path class="st24" d="M299.4,32.9V8.2h8.4c2.4,0,3.9,0.7,5.1,1.7c1.3,1.2,2,2.9,2,4.7c0,1.7-0.8,3.3-1.9,4.4c2.3,1.2,4,3.7,4,6.5
			c0,2.3-1.1,4.4-2.7,5.7c-1.3,1.1-2.9,1.7-5.4,1.7H299.4z M307.1,17.9c2,0,2.8-0.4,3.4-1c0.5-0.6,0.8-1.3,0.8-2.1s-0.3-1.6-0.8-2.1
			c-0.6-0.6-1.4-1-3.4-1h-4.2v6.3H307.1z M308.2,29.5c2.2,0,3.3-0.5,4-1.3c0.7-0.7,1.2-1.8,1.2-2.9s-0.5-2.1-1.2-2.9
			c-0.8-0.8-1.8-1.3-4-1.3h-5.3v8.3H308.2z"/>
		<path class="st24" d="M324.1,21.3v11.6h-3.5V8.2h8.6c2.3,0,3.7,0.5,4.8,1.4c1.5,1.2,2.4,3,2.4,5.1c0,2-1,3.9-2.4,5.1
			c-0.8,0.6-1.7,1.1-2.9,1.3l8.8,11.8h-4.3l-8.8-11.6H324.1z M329,17.9c1.6,0,2.4-0.4,3-0.9c0.6-0.6,0.9-1.4,0.9-2.3
			s-0.4-1.7-0.9-2.3c-0.6-0.6-1.4-0.9-3-0.9h-4.9v6.3H329z"/>
		<path class="st24" d="M351.9,7.9c7,0,12.3,5.5,12.3,12.7s-5.3,12.7-12.3,12.7c-7,0-12.3-5.5-12.3-12.7S344.9,7.9,351.9,7.9z
			 M351.9,29.9c5,0,8.8-4,8.8-9.3c0-5.3-3.8-9.3-8.8-9.3s-8.8,4-8.8,9.3C343.1,25.9,346.8,29.9,351.9,29.9z"/>
		<path class="st24" d="M374.5,32.9h-2.5l-7.7-24.6h3.6l5.5,17.8l6-17.8h2.5l6,17.8l5.5-17.8h3.6l-7.7,24.6h-2.5l-6.2-18.2
			L374.5,32.9z"/>
		<path class="st24" d="M403.2,14.8v18.1h-3.5V8.2h2.5l14.8,18.1V8.2h3.5v24.6H418L403.2,14.8z"/>
	</g>
	<path class="st24" d="M180.3,8.3h3.3v24.6h-3.3V8.3z"/>
	<path class="st24" d="M190,0h3.3v32.9H190V0z"/>
	<path class="st24" d="M170.7,16.3h3.3v16.5h-3.3V16.3z"/>
</g>
</svg>
