<?xml version="1.0" encoding="utf-8"?>
<!-- Generator: Adobe Illustrator 19.1.0, SVG Export Plug-In . SVG Version: 6.00 Build 0)  -->
<svg version="1.1" id="Layer_1" xmlns="http://www.w3.org/2000/svg" xmlns:xlink="http://www.w3.org/1999/xlink" x="0px" y="0px"
	 viewBox="0 0 212 25.6" style="enable-background:new 0 0 212 25.6;" xml:space="preserve">
<style type="text/css">
	.st0{fill:#1D1D1B;}
	.st1{clip-path:url(#SVGID_2_);fill:url(#SVGID_3_);}
	.st2{fill:#8990C7;}
	.st3{clip-path:url(#SVGID_5_);fill:url(#SVGID_6_);}
	.st4{clip-path:url(#SVGID_8_);fill:url(#SVGID_9_);}
	.st5{fill:#EB6728;}
	.st6{clip-path:url(#SVGID_11_);fill:url(#SVGID_12_);}
	.st7{fill:#0075BE;}
	.st8{clip-path:url(#SVGID_14_);fill:url(#SVGID_15_);}
	.st9{fill:#009CDE;}
	.st10{clip-path:url(#SVGID_17_);fill:url(#SVGID_18_);}
	.st11{fill:#E6334C;}
	.st12{clip-path:url(#SVGID_20_);fill:url(#SVGID_21_);}
	.st13{fill:#00AA95;}
	.st14{clip-path:url(#SVGID_23_);fill:url(#SVGID_24_);}
	.st15{fill:#884E98;}
	.st16{clip-path:url(#SVGID_26_);fill:url(#SVGID_27_);}
	.st17{fill:#E5007E;}
	.st18{clip-path:url(#SVGID_29_);fill:url(#SVGID_30_);}
	.st19{fill:#E20613;}
	.st20{clip-path:url(#SVGID_32_);fill:url(#SVGID_33_);}
	.st21{fill:#00A139;}
	.st22{clip-path:url(#SVGID_35_);fill:url(#SVGID_36_);}
	.st23{fill:#9C9B9B;}
	.st24{fill:#F29100;}
	.st25{clip-path:url(#SVGID_38_);fill:url(#SVGID_39_);}
	.st26{fill:#93C01F;}
</style>
<g>
	<g>
		<path class="st0" d="M93.1,15.8l3.2-9.8l3.2,9.8H93.1z M93.8,0.6l-8.3,24.7H90l1.8-5.4h8.9l1.7,5.4h4.6L98.8,0.6H93.8z"/>
		<path class="st0" d="M29.9,15.8l3.2-9.8l3.2,9.8H29.9z M30.7,0.6l-8.3,24.7h4.6l1.8-5.4h8.9l1.7,5.4h4.6L35.6,0.6H30.7z"/>
		<path class="st0" d="M114,4.6l5,0c4,0,4.6,2.3,4.6,3.6c0,3.1-2.9,3.6-4.6,3.6h-5V4.6z M122.4,15.4c3.5-0.9,5.4-3.5,5.4-7.2
			c0-4.6-3.4-7.6-8.6-7.6h-9.5v24.7h4.3v-9.5h3.4l7,9.5h5.4L122.4,15.4z"/>
		<polygon class="st0" points="62.5,17.4 50.8,0.6 46.5,0.6 46.5,25.2 50.8,25.2 50.8,8.4 62.5,25.2 66.7,25.2 66.7,0.6 62.5,0.6 		
			"/>
		<polygon class="st0" points="89.6,0.6 69.9,0.6 69.9,4.6 77,4.6 77,25.2 81.3,25.2 81.3,4.6 88,4.6 		"/>
		
			<rect x="-10.2" y="10.7" transform="matrix(-2.773694e-04 -1 1 -2.773694e-04 -10.745 15.0364)" class="st0" width="24.7" height="4.3"/>
		<polygon class="st0" points="19.8,0.6 14.8,0.6 5.9,12.9 14.8,25.2 20,25.2 11.1,12.9 		"/>
		<g>
			<defs>
				<rect id="SVGID_25_" x="4.3" y="0.6" width="1.5" height="24.7"/>
			</defs>
			<clipPath id="SVGID_2_">
				<use xlink:href="#SVGID_25_"  style="overflow:visible;"/>
			</clipPath>
			
				<linearGradient id="SVGID_3_" gradientUnits="userSpaceOnUse" x1="-210.0892" y1="94.9299" x2="-209.4052" y2="94.9299" gradientTransform="matrix(0 -36.0551 -36.0551 0 3427.7595 -7549.5737)">
				<stop  offset="0" style="stop-color:#F0E173"/>
				<stop  offset="0.2833" style="stop-color:#F0C334"/>
				<stop  offset="0.606" style="stop-color:#C79A32"/>
				<stop  offset="0.7855" style="stop-color:#F0C334"/>
				<stop  offset="1" style="stop-color:#976C32"/>
			</linearGradient>
			<rect x="4.3" y="0.6" class="st1" width="1.5" height="24.7"/>
		</g>
	</g>
	<g>
		<g>
			<g>
				<g>
					<path class="st17" d="M140.2,0.4h17v3.4h-6.7v21.5H147V3.7h-6.7V0.4z"/>
					<path class="st17" d="M164.7,7v18.3h-3.6V0.4h2.5l14.9,18.3V0.4h3.6v24.9h-2.5L164.7,7z"/>
					<path class="st17" d="M188.4,19c1.5,1.8,3.5,3.2,6.1,3.2c2.3,0,4.3-1.5,4.3-3.7c0-3.8-5.3-4.2-8.6-6.4
						c-1.8-1.2-3.2-2.9-3.2-5.5c0-3.6,3.2-6.6,7.5-6.6c3.2,0,5.4,1.4,6.7,2.5l-2.1,2.6c-1.3-1.1-2.9-1.7-4.4-1.7
						c-2.1,0-4.1,1.2-4.1,3.3c0,3.2,5.3,3.8,8.5,6c1.7,1.1,3.2,2.8,3.2,5.7c0,4.4-3.4,7.2-7.7,7.2c-3.4,0-6.5-1.5-8.7-4.2L188.4,19z
						"/>
				</g>
			</g>
		</g>
		<rect x="206.2" y="19.4" class="st17" width="5.8" height="5.8"/>
	</g>
</g>
</svg>
