<?xml version="1.0" encoding="utf-8"?>
<!-- Generator: Adobe Illustrator 19.1.0, SVG Export Plug-In . SVG Version: 6.00 Build 0)  -->
<svg version="1.1" id="Layer_1" xmlns="http://www.w3.org/2000/svg" xmlns:xlink="http://www.w3.org/1999/xlink" x="0px" y="0px"
	 viewBox="157 13.9 363.9 25.1" style="enable-background:new 157 13.9 363.9 25.1;" xml:space="preserve">
<style type="text/css">
	.st0{fill:#FFFFFF;}
	.st1{clip-path:url(#SVGID_2_);fill:url(#SVGID_3_);}
	.st2{fill:#D3D800;}
</style>
<path class="st0" d="M250.1,29.6l3.2-9.8l3.2,9.8H250.1z M250.8,14.3L242.5,39h4.5l1.8-5.4h8.9l1.7,5.4h4.6l-8.2-24.7H250.8z"/>
<path class="st0" d="M186.9,29.6l3.2-9.8l3.2,9.8H186.9z M187.7,14.3L179.4,39h4.6l1.8-5.4h8.9l1.7,5.4h4.6l-8.4-24.7H187.7z"/>
<path class="st0" d="M271,18.3h5c4,0,4.6,2.3,4.6,3.6c0,3.1-2.9,3.6-4.6,3.6h-5V18.3z M279.4,29.1c3.5-0.9,5.4-3.5,5.4-7.2
	c0-4.6-3.4-7.6-8.6-7.6h-9.5V39h4.3v-9.5h3.4l7,9.5h5.4L279.4,29.1z"/>
<polygon class="st0" points="219.5,31.1 207.8,14.3 203.5,14.3 203.5,39 207.8,39 207.8,22.2 219.5,39 223.7,39 223.7,14.3 
	219.5,14.3 "/>
<polygon class="st0" points="246.6,14.3 226.9,14.3 226.9,18.3 234,18.3 234,39 238.3,39 238.3,18.3 245,18.3 "/>
<rect x="146.8" y="24.5" transform="matrix(2.773694e-04 1 -1 2.773694e-04 185.7432 -132.5164)" class="st0" width="24.7" height="4.3"/>
<polygon class="st0" points="176.8,14.3 171.8,14.3 162.9,26.6 171.8,39 177,39 168.1,26.6 "/>
<g>
	<g>
		<defs>
			<rect id="SVGID_1_" x="161.3" y="14.3" width="1.5" height="24.7"/>
		</defs>
		<clipPath id="SVGID_2_">
			<use xlink:href="#SVGID_1_"  style="overflow:visible;"/>
		</clipPath>
		
			<linearGradient id="SVGID_3_" gradientUnits="userSpaceOnUse" x1="103.6057" y1="76.8824" x2="104.2897" y2="76.8824" gradientTransform="matrix(0 -36.0551 36.0551 0 -2609.9521 3774.4858)">
			<stop  offset="0" style="stop-color:#F0E173"/>
			<stop  offset="0.2833" style="stop-color:#F0C334"/>
			<stop  offset="0.606" style="stop-color:#C79A32"/>
			<stop  offset="0.7855" style="stop-color:#F0C334"/>
			<stop  offset="1" style="stop-color:#976C32"/>
		</linearGradient>
		<rect x="161.3" y="14.3" class="st1" width="1.5" height="24.7"/>
	</g>
</g>
<g>
	<g>
		<path class="st2" d="M306.1,38.5h-2.5l-7.7-24.6h3.6l5.5,17.8l6-17.8h2.5l6,17.8l5.5-17.8h3.6l-7.7,24.6h-2.5l-6.1-18.2
			L306.1,38.5z"/>
		<path class="st2" d="M361.6,26.9v11.6h-3.5V13.9h8.6c2.2,0,3.7,0.5,4.8,1.4c1.5,1.2,2.4,3,2.4,5.1c0,2-0.9,3.9-2.4,5.1
			c-0.8,0.6-1.7,1.1-2.9,1.3l8.8,11.7h-4.3l-8.7-11.6H361.6z M366.5,23.6c1.6,0,2.4-0.4,3-0.9c0.6-0.6,0.9-1.4,0.9-2.2
			s-0.4-1.7-0.9-2.2c-0.6-0.6-1.4-0.9-3-0.9h-4.9v6.3h4.9V23.6z"/>
		<path class="st2" d="M383.6,35.2h10.9v3.3h-14.4V13.9h3.5V35.2z"/>
		<path class="st2" d="M398.1,38.5V13.9h7.4c3.9,0,6.4,0.8,8.4,2.3c3,2.2,4.9,5.9,4.9,10s-1.9,7.7-4.9,10c-2,1.5-4.6,2.3-8.5,2.3
			C405.4,38.5,398.1,38.5,398.1,38.5z M412.4,19.3c-1.5-1.3-3.6-2.1-7-2.1h-3.7v17.9h3.7c3.4,0,5.5-0.7,7-2.1c1.9-1.7,3-4.1,3-6.9
			S414.2,21,412.4,19.3z"/>
		<path class="st2" d="M426.5,27.6v10.9H423V13.9h9.3c2.4,0,3.9,0.6,5.1,1.6c1.5,1.3,2.4,3.1,2.4,5.2s-0.9,4-2.4,5.2
			c-1.2,1-2.7,1.6-5.1,1.6L426.5,27.6L426.5,27.6z M432.1,24.3c1.7,0,2.6-0.4,3.2-1.1c0.6-0.6,1-1.5,1-2.4c0-0.9-0.4-1.8-1-2.4
			c-0.6-0.7-1.5-1.1-3.2-1.1h-5.6v7H432.1z"/>
		<path class="st2" d="M454.1,32.2h-10.4l-2.6,6.3h-3.7l10.3-24.6h2.5l10.2,24.6h-3.7L454.1,32.2z M445.2,28.8h7.6l-3.8-9.1
			L445.2,28.8z"/>
		<path class="st2" d="M466.3,20.4v18.1h-3.5V13.9h2.5L480,32V13.9h3.5v24.6H481L466.3,20.4z"/>
		<path class="st2" d="M499.8,23.6v3.3h-8.1v8.3h10.9v3.3h-14.4V13.9h14.1v3.3h-10.5v6.3L499.8,23.6L499.8,23.6z"/>
		<path class="st2" d="M510,35.2h10.9v3.3h-14.4V13.9h3.5V35.2z"/>
	</g>
	<g>
		<polygon class="st2" points="342.6,17.3 342.6,13.9 334.8,13.9 331.5,13.9 331.5,17.3 331.5,25 334.8,25 334.8,17.3 		"/>
		<polygon class="st2" points="350.5,27.4 350.5,35.1 342.7,35.1 342.7,38.5 350.5,38.5 353.8,38.5 353.8,35.1 353.8,27.4 		"/>
	</g>
</g>
</svg>
