<?xml version="1.0" encoding="utf-8"?>
<!-- Generator: Adobe Illustrator 19.1.0, SVG Export Plug-In . SVG Version: 6.00 Build 0)  -->
<svg version="1.1" id="Layer_1" xmlns="http://www.w3.org/2000/svg" xmlns:xlink="http://www.w3.org/1999/xlink" x="0px" y="0px"
	 viewBox="0 0 188.9 25.1" style="enable-background:new 0 0 188.9 25.1;" xml:space="preserve">
<style type="text/css">
	.st0{fill:#1D1D1B;}
	.st1{clip-path:url(#SVGID_2_);fill:url(#SVGID_3_);}
	.st2{fill:#8990C7;}
	.st3{clip-path:url(#SVGID_5_);fill:url(#SVGID_6_);}
	.st4{clip-path:url(#SVGID_8_);fill:url(#SVGID_9_);}
	.st5{fill:#EB6728;}
	.st6{clip-path:url(#SVGID_11_);fill:url(#SVGID_12_);}
	.st7{fill:#0075BE;}
	.st8{clip-path:url(#SVGID_14_);fill:url(#SVGID_15_);}
	.st9{fill:#009CDE;}
	.st10{clip-path:url(#SVGID_17_);fill:url(#SVGID_18_);}
	.st11{fill:#E6334C;}
	.st12{clip-path:url(#SVGID_20_);fill:url(#SVGID_21_);}
	.st13{fill:#00AA95;}
	.st14{clip-path:url(#SVGID_23_);fill:url(#SVGID_24_);}
	.st15{fill:#884E98;}
	.st16{clip-path:url(#SVGID_26_);fill:url(#SVGID_27_);}
	.st17{fill:#E5007E;}
	.st18{clip-path:url(#SVGID_29_);fill:url(#SVGID_30_);}
	.st19{fill:#E20613;}
	.st20{clip-path:url(#SVGID_32_);fill:url(#SVGID_33_);}
	.st21{fill:#00A139;}
	.st22{clip-path:url(#SVGID_35_);fill:url(#SVGID_36_);}
	.st23{fill:#9C9B9B;}
	.st24{fill:#F29100;}
	.st25{clip-path:url(#SVGID_38_);fill:url(#SVGID_39_);}
	.st26{fill:#93C01F;}
</style>
<g>
	<g>
		<path class="st24" d="M3.5,21.4h10.8v3.3H0V0.3h3.5V21.4z"/>
		<path class="st24" d="M17.5,0.3H21v24.4h-3.5V0.3z"/>
		<path class="st24" d="M47.2,20.6c-2.1,2.7-5.7,4.5-9.5,4.5c-7.3,0-12.7-5.3-12.7-12.6C25,5.5,30.3,0,37.4,0c3.5,0,6.8,1.4,8.9,3.8
			L44,6.1c-1.4-1.6-4-2.8-6.6-2.8c-5,0-8.9,4-8.9,9.2c0,5.5,4,9.2,9.2,9.2c2.6,0,4.7-1,6-2.3v-6.3h-7V9.9h10.5V20.6z"/>
		<path class="st24" d="M95.1,18.7c1.4,1.7,3.5,3.1,6,3.1c2.3,0,4.3-1.5,4.3-3.7c0-3.7-5.2-4.1-8.4-6.3c-1.7-1.2-3.1-2.8-3.1-5.4
			c0-3.6,3.1-6.5,7.4-6.5c3.1,0,5.3,1.4,6.6,2.4L105.7,5c-1.3-1.1-2.8-1.7-4.4-1.7c-2,0-4,1.2-4,3.3c0,3.1,5.2,3.8,8.3,5.9
			c1.6,1.1,3.2,2.8,3.2,5.6c0,4.3-3.3,7.1-7.6,7.1c-3.3,0-6.4-1.5-8.5-4.1L95.1,18.7z"/>
	</g>
	<g>
		<path class="st24" d="M122.2,13.9c2.4,0,3.9-0.6,5.1-1.6c1.5-1.3,2.4-3.1,2.4-5.2c0-2.1-0.9-3.9-2.4-5.2c-1.2-1-2.7-1.6-5.1-1.6
			h-9.2v13.6H122.2z M116.4,3.7h5.6c1.7,0,2.6,0.4,3.2,1.1c0.6,0.6,1,1.5,1,2.4s-0.4,1.8-1,2.4c-0.6,0.7-1.5,1.1-3.2,1.1h-5.6V3.7z"
			/>
		<polygon class="st24" points="112.9,14.1 112.9,24.8 116.4,24.8 116.4,16.2 		"/>
	</g>
	<g>
		<polygon class="st24" points="144.3,13.3 144.3,9.9 136.3,9.9 136.3,3.7 146.8,3.7 146.8,0.3 132.8,0.3 132.8,13.3 		"/>
		<polygon class="st24" points="136.3,15.4 132.8,13.4 132.8,24.8 147.1,24.8 147.1,21.4 136.3,21.4 		"/>
	</g>
	<path class="st24" d="M184.1,2.7c-2-1.5-4.5-2.3-8.4-2.3h-7.3v3.3h5.1l0,0h2c3.4,0,5.4,0.7,7,2.1c1.8,1.6,3,4.1,3,6.8
		s-1.1,5.2-3,6.8c-1.5,1.3-3.6,2.1-7,2.1h-3.7V5.9l-3.5-2v20.9h7.3c3.9,0,6.4-0.8,8.4-2.3c3-2.2,4.8-5.9,4.8-9.9
		S187.1,4.9,184.1,2.7z"/>
	<g>
		<polygon class="st24" points="154.1,15.4 150.6,13.4 150.6,24.8 164.9,24.8 164.9,21.4 154.1,21.4 		"/>
		<polygon class="st24" points="162.1,13.3 162.1,9.9 154.1,9.9 154.1,3.7 164.5,3.7 164.5,0.3 150.6,0.3 150.6,13.3 		"/>
	</g>
	<g>
		<polygon class="st24" points="82,3.7 92.1,3.7 92.1,0.3 75.4,0.3 75.4,3.7 82,3.7 		"/>
		<polygon class="st24" points="82,3.9 82,24.8 85.5,24.8 85.5,5.9 		"/>
	</g>
	<g>
		<polygon class="st24" points="51.5,13.5 51.5,24.8 55,24.8 55,15.5 		"/>
		<polygon class="st24" points="68.6,0.3 68.6,9.9 55,9.9 55,0.3 51.5,0.3 51.5,13.3 55,13.3 55,13.3 68.6,13.3 68.6,24.8 
			72.1,24.8 72.1,0.3 		"/>
	</g>
</g>
</svg>
