<?xml version="1.0" encoding="utf-8"?>
<!-- Generator: Adobe Illustrator 19.1.0, SVG Export Plug-In . SVG Version: 6.00 Build 0)  -->
<svg version="1.1" id="Layer_1" xmlns="http://www.w3.org/2000/svg" xmlns:xlink="http://www.w3.org/1999/xlink" x="0px" y="0px"
	 viewBox="0 0 289.2 24.7" style="enable-background:new 0 0 289.2 24.7;" xml:space="preserve">
<style type="text/css">
	.st0{fill:#1D1D1B;}
	.st1{clip-path:url(#SVGID_2_);fill:url(#SVGID_3_);}
	.st2{fill:#8990C7;}
	.st3{clip-path:url(#SVGID_5_);fill:url(#SVGID_6_);}
	.st4{clip-path:url(#SVGID_8_);fill:url(#SVGID_9_);}
	.st5{fill:#EB6728;}
	.st6{clip-path:url(#SVGID_11_);fill:url(#SVGID_12_);}
	.st7{fill:#0075BE;}
	.st8{clip-path:url(#SVGID_14_);fill:url(#SVGID_15_);}
	.st9{fill:#009CDE;}
	.st10{clip-path:url(#SVGID_17_);fill:url(#SVGID_18_);}
	.st11{fill:#E6334C;}
	.st12{clip-path:url(#SVGID_20_);fill:url(#SVGID_21_);}
	.st13{fill:#00AA95;}
	.st14{clip-path:url(#SVGID_23_);fill:url(#SVGID_24_);}
	.st15{fill:#884E98;}
	.st16{clip-path:url(#SVGID_26_);fill:url(#SVGID_27_);}
	.st17{fill:#E5007E;}
	.st18{clip-path:url(#SVGID_29_);fill:url(#SVGID_30_);}
	.st19{fill:#E20613;}
	.st20{clip-path:url(#SVGID_32_);fill:url(#SVGID_33_);}
	.st21{fill:#00A139;}
	.st22{clip-path:url(#SVGID_35_);fill:url(#SVGID_36_);}
	.st23{fill:#9C9B9B;}
	.st24{fill:#F29100;}
	.st25{clip-path:url(#SVGID_38_);fill:url(#SVGID_39_);}
	.st26{fill:#93C01F;}
</style>
<g>
	<g>
		<g>
			<path class="st0" d="M93.1,15.3l3.2-9.8l3.2,9.8H93.1z M93.8,0l-8.3,24.7H90l1.8-5.4h8.9l1.7,5.4h4.6L98.8,0H93.8z"/>
			<path class="st0" d="M29.9,15.3l3.2-9.8l3.2,9.8H29.9z M30.7,0l-8.3,24.7h4.6l1.8-5.4h8.9l1.7,5.4h4.6L35.6,0H30.7z"/>
			<path class="st0" d="M114,4l5,0c4,0,4.6,2.3,4.6,3.6c0,3.1-2.9,3.6-4.6,3.6h-5V4z M122.4,14.9c3.5-0.9,5.4-3.5,5.4-7.2
				c0-4.6-3.4-7.6-8.6-7.6h-9.5v24.7h4.3v-9.5h3.4l7,9.5h5.4L122.4,14.9z"/>
			<polygon class="st0" points="62.5,16.8 50.8,0 46.5,0 46.5,24.7 50.8,24.7 50.8,7.9 62.5,24.7 66.7,24.7 66.7,0 62.5,0 			"/>
			<polygon class="st0" points="89.6,0 69.9,0 69.9,4 77,4 77,24.7 81.3,24.7 81.3,4 88,4 			"/>
			
				<rect x="-10.2" y="10.2" transform="matrix(-2.773694e-04 -1 1 -2.773694e-04 -10.2178 14.5091)" class="st0" width="24.7" height="4.3"/>
			<polygon class="st0" points="19.8,0 14.8,0 5.9,12.4 14.8,24.7 20,24.7 11.1,12.4 			"/>
			<g>
				<defs>
					<rect id="SVGID_7_" x="4.3" y="0" width="1.5" height="24.7"/>
				</defs>
				<clipPath id="SVGID_2_">
					<use xlink:href="#SVGID_7_"  style="overflow:visible;"/>
				</clipPath>
				
					<linearGradient id="SVGID_3_" gradientUnits="userSpaceOnUse" x1="-196.6741" y1="578.0839" x2="-195.9902" y2="578.0839" gradientTransform="matrix(0 -36.0551 -36.0551 0 20847.9395 -7066.4194)">
					<stop  offset="0" style="stop-color:#F0E173"/>
					<stop  offset="0.2833" style="stop-color:#F0C334"/>
					<stop  offset="0.606" style="stop-color:#C79A32"/>
					<stop  offset="0.7855" style="stop-color:#F0C334"/>
					<stop  offset="1" style="stop-color:#976C32"/>
				</linearGradient>
				<rect x="4.3" y="0" class="st1" width="1.5" height="24.7"/>
			</g>
		</g>
	</g>
	<g>
		<path class="st5" d="M152.4,24.7H150L140.3,0h3.7l7.3,18.6L158.5,0h3.7L152.4,24.7z"/>
		<path class="st5" d="M217.2,19.4h-2.5l-7.2-11.3v16.6h-3.5V0h2.5l9.5,15.1L225.4,0h2.5v24.7h-3.5V8.1L217.2,19.4z"/>
		<path class="st5" d="M244.1,10.7V14H236v7.3H247v3.4h-14.5V0h14.1v3.3H236v7.3H244.1z"/>
		<path class="st5" d="M176,10.7V14h-8.1v7.3h10.9v3.4h-14.5V0h14.1v3.3h-10.6v7.3H176z"/>
		<path class="st5" d="M273.3,13.9v10.8h-3.5V0h8.6c2.3,0,3.7,0.5,4.8,1.4c1.5,1.2,2.4,3,2.4,5c0,0,0,1,0,1c0,2-1,3.9-2.4,5.1
			c-0.8,0.6-1.7,1.2-2.4,1.3l8.4,10.9h-4.3l-8.3-10.8H273.3z M278.3,10.6c1.6,0,2.4-0.4,3-0.9c0.6-0.6,0.9-1.4,0.9-2.3
			c0,0,0-0.9,0-1c0-0.9-0.4-1.6-0.9-2.2c-0.6-0.6-1.4-0.9-3-0.9h-4.9v7.2H278.3z"/>
		<path class="st5" d="M186.4,13.9v10.8h-3.5V0h8.6c2.3,0,3.7,0.5,4.8,1.4c1.5,1.2,2.4,3,2.4,5c0,0,0,1,0,1c0,2-1,3.9-2.4,5.1
			c-0.8,0.6-1.7,1.2-2.4,1.3l8.4,10.9H198l-8.3-10.8H186.4z M191.4,10.6c1.6,0,2.4-0.4,3-0.9c0.6-0.6,0.9-1.4,0.9-2.3c0,0,0-0.9,0-1
			c0-0.9-0.4-1.6-0.9-2.2c-0.6-0.6-1.4-0.9-3-0.9h-4.9v7.2H191.4z"/>
	</g>
	<path class="st5" d="M261.6,10.7V3.3H251V0l14.1,0v24.7h-14.5v-3.4h10.9V14h-8.1v-3.3H261.6z"/>
</g>
</svg>
