<?xml version="1.0" encoding="utf-8"?>
<!-- Generator: Adobe Illustrator 19.1.0, SVG Export Plug-In . SVG Version: 6.00 Build 0)  -->
<svg version="1.1" id="Layer_1" xmlns="http://www.w3.org/2000/svg" xmlns:xlink="http://www.w3.org/1999/xlink" x="0px" y="0px"
	 viewBox="117 -1.4 283.5 53.4" style="enable-background:new 117 -1.4 283.5 53.4;" xml:space="preserve">
<style type="text/css">
	.st0{fill:#FFFFFF;}
	.st1{fill:url(#SVGID_1_);}
</style>
<g id="BLACK_BG">
</g>
<path class="st0" d="M162.6,52l19.6-53.4h9.8L211.6,52h-10.3l-4.6-12.6h-19.2L172.9,52H162.6z M180.9,30.3h12.5l-6.2-17.1
	L180.9,30.3z"/>
<path class="st0" d="M301.1,52l19.6-53.4h9.8L350.1,52h-10.3l-4.6-12.6H316L311.4,52H301.1z M319.3,30.3h12.5l-6.2-17.1L319.3,30.3z
	"/>
<path class="st0" d="M216.5-1.4h7.9l27.4,34v-34H262V52h-7.2l-28.1-34.8V52h-10.2V-1.4z"/>
<path class="st0" d="M310-1.4l-3.4,9.1h-14.1V52h-10.3V7.7h-14.1v-9.1H310z"/>
<path class="st0" d="M400.5,52l-16.7-23.1c2.1-0.8,3.8-1.9,5.1-3.4c2.7-2.7,4.2-6.9,4.2-11.1s-1.5-8.3-4.2-11.1
	c-3-3.1-7-4.8-13.9-4.8h-20.1v53.4h10.3V30.1h8.4l15.6,21.8L400.5,52L400.5,52z M365.2,7.8h9.3c3.5,0,5.3,0.8,6.5,2.1
	c1.1,1.2,1.8,2.8,1.8,4.6s-0.6,3.3-1.8,4.5c-1.2,1.3-3,2.1-6.5,2.1h-9.3V7.8z"/>
<g>
	<polygon class="st0" points="160.2,-1.4 149,-1.4 129.8,25.3 149,52 160.2,52 141,25.3 	"/>
</g>
<linearGradient id="SVGID_1_" gradientUnits="userSpaceOnUse" x1="127.95" y1="-0.8" x2="127.95" y2="52.6" gradientTransform="matrix(1 0 0 -1 0 51.2)">
	<stop  offset="1.000000e-02" style="stop-color:#F2DB65"/>
	<stop  offset="2.465684e-02" style="stop-color:#E6CB56"/>
	<stop  offset="6.812344e-02" style="stop-color:#C6A435"/>
	<stop  offset="0.1096" style="stop-color:#B28B22"/>
	<stop  offset="0.1479" style="stop-color:#A67D17"/>
	<stop  offset="0.18" style="stop-color:#A27813"/>
	<stop  offset="0.51" style="stop-color:#F2DB65"/>
	<stop  offset="0.5753" style="stop-color:#ECD25E"/>
	<stop  offset="0.6816" style="stop-color:#DCBB4C"/>
	<stop  offset="0.71" style="stop-color:#D7B446"/>
	<stop  offset="1" style="stop-color:#987113"/>
</linearGradient>
<rect x="126.4" y="-1.4" class="st1" width="3.1" height="53.4"/>
<rect x="117" y="-1.4" class="st0" width="9.4" height="53.4"/>
</svg>
