<?xml version="1.0" encoding="utf-8"?>
<!-- Generator: Adobe Illustrator 19.1.0, SVG Export Plug-In . SVG Version: 6.00 Build 0)  -->
<svg version="1.1" xmlns="http://www.w3.org/2000/svg" xmlns:xlink="http://www.w3.org/1999/xlink" x="0px" y="0px"
	 viewBox="0 0 283.5 53.4" style="enable-background:new 0 0 283.5 53.4;" xml:space="preserve">
<style type="text/css">
	.st0{clip-path:url(#SVGID_3_);fill:url(#SVGID_4_);}
	.st1{clip-path:url(#SVGID_6_);fill:url(#SVGID_7_);}
	.st2{clip-path:url(#SVGID_9_);fill:url(#SVGID_10_);}
	.st3{fill:url(#SVGID_11_);}
	.st4{fill:url(#SVGID_12_);}
	.st5{fill:url(#SVGID_13_);}
	.st6{fill:url(#SVGID_14_);}
	.st7{fill:#FFFFFF;}
	.st8{fill:url(#SVGID_15_);}
	.st9{fill:#D6B346;}
	.st10{fill:url(#SVGID_16_);}
	.st11{fill:url(#SVGID_17_);}
	.st12{fill:url(#SVGID_18_);}
	.st13{fill:url(#SVGID_19_);}
	.st14{fill:none;}
	.st15{fill:none;stroke:#E6007E;stroke-width:0.25;stroke-miterlimit:10;}
	.st16{fill:none;stroke:#E6007E;stroke-width:0.25;}
</style>
<g id="BLACK_BG">
</g>
<g id="Artwork_Logo">
	<g>
		<path d="M45.6,53.4L65.2,0H75l19.6,53.4H84.3l-4.6-12.6H60.5l-4.6,12.6H45.6z M63.9,31.7h12.5l-6.2-17.1L63.9,31.7z"/>
		<path d="M184.1,53.4L203.7,0h9.8l19.6,53.4h-10.3l-4.6-12.6H199l-4.6,12.6H184.1z M202.3,31.7h12.5l-6.2-17.1L202.3,31.7z"/>
		<path d="M99.5,0h7.9l27.4,34V0H145l0,53.4h-7.2l-28.1-34.8v34.8H99.5V0z"/>
		<path d="M193,0l-3.4,9.1h-14.1l0,44.3h-10.3l0-44.3h-14.1V0H193z"/>
		<path d="M283.5,53.4l-16.7-23.1c2.1-0.8,3.8-1.9,5.1-3.4c2.7-2.7,4.2-6.9,4.2-11.1c0-4.2-1.5-8.3-4.2-11.1c-3-3.1-7-4.8-13.9-4.8
			h-20.1l0,53.4h10.3l0-21.8h8.4l15.6,21.8H283.5z M248.2,9.2h9.3c3.5,0,5.3,0.8,6.5,2.1c1.1,1.2,1.8,2.8,1.8,4.6
			c0,1.8-0.6,3.3-1.8,4.5c-1.2,1.3-3,2.1-6.5,2.1h-9.3V9.2z"/>
		<g>
			<g>
				<polygon points="43.2,0 32,0 12.8,26.7 32,53.4 43.2,53.4 24,26.7 				"/>
			</g>
			<linearGradient id="SVGID_2_" gradientUnits="userSpaceOnUse" x1="11.0149" y1="53.4239" x2="11.0149" y2="5.030450e-03">
				<stop  offset="1.000000e-02" style="stop-color:#F2DB65"/>
				<stop  offset="2.465684e-02" style="stop-color:#E6CB56"/>
				<stop  offset="6.812344e-02" style="stop-color:#C6A435"/>
				<stop  offset="0.1096" style="stop-color:#B28B22"/>
				<stop  offset="0.1479" style="stop-color:#A67D17"/>
				<stop  offset="0.18" style="stop-color:#A27813"/>
				<stop  offset="0.51" style="stop-color:#F2DB65"/>
				<stop  offset="0.5753" style="stop-color:#ECD25E"/>
				<stop  offset="0.6816" style="stop-color:#DCBB4C"/>
				<stop  offset="0.71" style="stop-color:#D7B446"/>
				<stop  offset="1" style="stop-color:#987113"/>
			</linearGradient>
			<rect x="9.4" y="0" style="fill:url(#SVGID_2_);" width="3.1" height="53.4"/>
			<rect y="0" width="9.4" height="53.4"/>
		</g>
	</g>
</g>
<g id="Grid">
</g>
</svg>
