<?xml version="1.0" encoding="utf-8"?>
<!-- Generator: Adobe Illustrator 19.1.0, SVG Export Plug-In . SVG Version: 6.00 Build 0)  -->
<svg version="1.1" xmlns="http://www.w3.org/2000/svg" xmlns:xlink="http://www.w3.org/1999/xlink" x="0px" y="0px"
	 viewBox="566 -572.3 300.1 1198.2" style="enable-background:new 566 -572.3 300.1 1198.2;" xml:space="preserve">
<style type="text/css">
	.st0{fill:#1D1D1B;}
	.st1{fill:url(#SVGID_1_);}
	.st2{fill:url(#SVGID_2_);}
	.st3{fill:url(#SVGID_3_);}
	.st4{fill:url(#SVGID_4_);}
	.st5{fill:#FFFFFF;}
	.st6{fill:url(#SVGID_5_);}
	.st7{fill:url(#SVGID_6_);}
	.st8{fill:url(#SVGID_7_);}
	.st9{fill:url(#SVGID_8_);}
	.st10{display:none;}
	.st11{display:inline;fill:none;stroke:#70706E;stroke-width:0.7484;stroke-miterlimit:10;}
	.st12{display:inline;}
	.st13{fill:none;stroke:#70706E;stroke-width:0.7484;stroke-miterlimit:10;}
</style>
<g id="Layer_1">
	<g>
		<path class="st0" d="M626.2-397.3l18.3-50l9.2,0l18.3,50l-9.6,0l-4.3-11.8h-17.9l-4.3,11.8L626.2-397.3z M643.2-417.6l11.7,0
			l-5.8-16L643.2-417.6z"/>
		<path class="st0" d="M755.8-397.3l18.3-50h9.2l18.3,50H792l-4.3-11.8h-17.9l-4.3,11.8L755.8-397.3z M772.8-417.6l11.7,0l-5.8-16
			L772.8-417.6z"/>
		<path class="st0" d="M676.6-447.3h7.4l25.6,31.8l0-31.8h9.6v50h-6.7l-26.3-32.6l0,32.6h-9.6V-447.3z"/>
		<path class="st0" d="M764.1-447.3l-3.1,8.6l-13.2,0v41.4h-9.6v-41.4l-13.2,0v-8.6L764.1-447.3z"/>
		<path class="st0" d="M848.8-397.3l-15.6-21.6c2-0.7,3.5-1.8,4.8-3.2c2.5-2.6,3.9-6.4,3.9-10.4c0-3.9-1.4-7.8-3.9-10.4
			c-2.8-2.9-6.6-4.5-13-4.5h-18.8v50h9.6l0-20.4h7.9l14.6,20.4H848.8z M815.8-438.7h8.7c3.3,0,4.9,0.8,6.1,2
			c1.1,1.1,1.6,2.6,1.6,4.3c0,1.6-0.6,3.1-1.6,4.2c-1.1,1.2-2.8,2-6.1,2l-8.7,0V-438.7z"/>
		<g>
			<g>
				<polygon class="st0" points="623.8,-447.3 613.4,-447.3 595.5,-422.3 613.4,-397.3 623.8,-397.3 605.9,-422.3 				"/>
			</g>
			<linearGradient id="SVGID_1_" gradientUnits="userSpaceOnUse" x1="593.7436" y1="-397.2623" x2="593.7436" y2="-447.2646">
				<stop  offset="1.000000e-02" style="stop-color:#F2DA64"/>
				<stop  offset="3.207484e-02" style="stop-color:#E1C553"/>
				<stop  offset="7.345867e-02" style="stop-color:#C5A437"/>
				<stop  offset="0.113" style="stop-color:#B18C23"/>
				<stop  offset="0.1495" style="stop-color:#A57D17"/>
				<stop  offset="0.18" style="stop-color:#A17813"/>
				<stop  offset="0.1949" style="stop-color:#A57D17"/>
				<stop  offset="0.51" style="stop-color:#F1DA64"/>
				<stop  offset="0.5776" style="stop-color:#EBD15D"/>
				<stop  offset="0.6875" style="stop-color:#DAB94A"/>
				<stop  offset="0.71" style="stop-color:#D6B345"/>
				<stop  offset="1" style="stop-color:#977114"/>
			</linearGradient>
			<rect x="592.3" y="-447.3" class="st1" width="2.9" height="50"/>
			<rect x="583.4" y="-447.3" class="st0" width="8.8" height="50"/>
		</g>
	</g>
	<g>
		<path class="st0" d="M626.3-97.9l18.3-49.9h9.2L672-97.9h-9.6l-4.3-11.8h-17.9l-4.3,11.8H626.3z M643.3-118.3H655l-5.8-16
			L643.3-118.3z"/>
		<path class="st0" d="M755.7-97.9l18.3-49.9h9.2l18.3,49.9h-9.6l-4.3-11.8h-17.9l-4.3,11.8H755.7z M772.8-118.3h11.7l-5.8-16
			L772.8-118.3z"/>
		<path class="st0" d="M676.6-147.9h7.3l25.6,31.8v-31.8h9.6l0,49.9h-6.7l-26.2-32.6v32.6h-9.6V-147.9z"/>
		<path class="st0" d="M764-147.9l-3.1,8.5h-13.2l0,41.4h-9.6l0-41.4h-13.2v-8.5H764z"/>
		<path class="st0" d="M848.6-97.9L833-119.5c2-0.7,3.5-1.8,4.8-3.2c2.5-2.6,3.9-6.4,3.9-10.3c0-3.9-1.4-7.8-3.9-10.3
			c-2.8-2.9-6.6-4.5-13-4.5H806v49.9h9.6l0-20.3h7.9l14.6,20.3H848.6z M815.7-139.3h8.7c3.3,0,4.9,0.8,6.1,2
			c1.1,1.1,1.6,2.6,1.6,4.3c0,1.6-0.6,3.1-1.6,4.2c-1.1,1.2-2.8,2-6.1,2h-8.7V-139.3z"/>
		<g>
			<g>
				<polygon class="st0" points="624,-147.9 613.5,-147.9 595.6,-122.9 613.5,-97.9 624,-97.9 606.1,-122.9 				"/>
			</g>
			<linearGradient id="SVGID_2_" gradientUnits="userSpaceOnUse" x1="593.3093" y1="-97.9312" x2="593.3093" y2="-147.8697">
				<stop  offset="1.000000e-02" style="stop-color:#F2DA64"/>
				<stop  offset="3.207484e-02" style="stop-color:#E1C553"/>
				<stop  offset="7.345867e-02" style="stop-color:#C5A437"/>
				<stop  offset="0.113" style="stop-color:#B18C23"/>
				<stop  offset="0.1495" style="stop-color:#A57D17"/>
				<stop  offset="0.18" style="stop-color:#A17813"/>
				<stop  offset="0.1949" style="stop-color:#A57D17"/>
				<stop  offset="0.51" style="stop-color:#F1DA64"/>
				<stop  offset="0.5776" style="stop-color:#EBD15D"/>
				<stop  offset="0.6875" style="stop-color:#DAB94A"/>
				<stop  offset="0.71" style="stop-color:#D6B345"/>
				<stop  offset="1" style="stop-color:#977114"/>
			</linearGradient>
			<rect x="591.2" y="-147.9" class="st2" width="4.1" height="49.9"/>
			<rect x="583.6" y="-147.9" class="st0" width="7.6" height="49.9"/>
		</g>
	</g>
	<g>
		<path class="st0" d="M626.3,201.4l18.3-49.9h9.2l18.3,49.9h-9.6l-4.3-11.8h-17.9l-4.3,11.8H626.3z M643.3,181.1H655l-5.8-16
			L643.3,181.1z"/>
		<path class="st0" d="M755.7,201.4l18.3-49.9h9.2l18.3,49.9h-9.6l-4.3-11.8h-17.9l-4.3,11.8H755.7z M772.8,181.1h11.7l-5.8-16
			L772.8,181.1z"/>
		<path class="st0" d="M676.6,151.5h7.3l25.6,31.8v-31.8h9.6l0,49.9h-6.7l-26.2-32.6v32.6h-9.6V151.5z"/>
		<path class="st0" d="M764,151.5l-3.1,8.5h-13.2l0,41.4h-9.6l0-41.4h-13.2v-8.5H764z"/>
		<path class="st0" d="M848.6,201.4L833,179.8c2-0.7,3.5-1.8,4.8-3.2c2.5-2.6,3.9-6.4,3.9-10.3c0-3.9-1.4-7.8-3.9-10.3
			c-2.8-2.9-6.6-4.5-13-4.5H806v49.9h9.6l0-20.3h7.9l14.6,20.3H848.6z M815.7,160h8.7c3.3,0,4.9,0.8,6.1,2c1.1,1.1,1.6,2.6,1.6,4.3
			c0,1.6-0.6,3.1-1.6,4.2c-1.1,1.2-2.8,2-6.1,2h-8.7V160z"/>
		<g>
			<g>
				<polygon class="st0" points="624,151.5 613.5,151.5 595.6,176.5 613.5,201.4 624,201.4 606.1,176.5 				"/>
			</g>
			<linearGradient id="SVGID_3_" gradientUnits="userSpaceOnUse" x1="592.7209" y1="201.4318" x2="592.7209" y2="151.4933">
				<stop  offset="1.000000e-02" style="stop-color:#F2DA64"/>
				<stop  offset="3.207484e-02" style="stop-color:#E1C553"/>
				<stop  offset="7.345867e-02" style="stop-color:#C5A437"/>
				<stop  offset="0.113" style="stop-color:#B18C23"/>
				<stop  offset="0.1495" style="stop-color:#A57D17"/>
				<stop  offset="0.18" style="stop-color:#A17813"/>
				<stop  offset="0.1949" style="stop-color:#A57D17"/>
				<stop  offset="0.51" style="stop-color:#F1DA64"/>
				<stop  offset="0.5776" style="stop-color:#EBD15D"/>
				<stop  offset="0.6875" style="stop-color:#DAB94A"/>
				<stop  offset="0.71" style="stop-color:#D6B345"/>
				<stop  offset="1" style="stop-color:#977114"/>
			</linearGradient>
			<rect x="590.1" y="151.5" class="st3" width="5.3" height="49.9"/>
			<rect x="583.6" y="151.5" class="st0" width="6.5" height="49.9"/>
		</g>
	</g>
	<g>
		<g>
			<polygon class="st0" points="736.3,450.9 725.8,450.9 707.9,475.8 725.8,500.8 736.3,500.8 718.4,475.8 			"/>
		</g>
		<linearGradient id="SVGID_4_" gradientUnits="userSpaceOnUse" x1="705.0419" y1="500.7938" x2="705.0419" y2="450.8553">
			<stop  offset="1.000000e-02" style="stop-color:#F2DA64"/>
			<stop  offset="3.207484e-02" style="stop-color:#E1C553"/>
			<stop  offset="7.345867e-02" style="stop-color:#C5A437"/>
			<stop  offset="0.113" style="stop-color:#B18C23"/>
			<stop  offset="0.1495" style="stop-color:#A57D17"/>
			<stop  offset="0.18" style="stop-color:#A17813"/>
			<stop  offset="0.1949" style="stop-color:#A57D17"/>
			<stop  offset="0.51" style="stop-color:#F1DA64"/>
			<stop  offset="0.5776" style="stop-color:#EBD15D"/>
			<stop  offset="0.6875" style="stop-color:#DAB94A"/>
			<stop  offset="0.71" style="stop-color:#D6B345"/>
			<stop  offset="1" style="stop-color:#977114"/>
		</linearGradient>
		<rect x="702.4" y="450.9" class="st4" width="5.3" height="49.9"/>
		<rect x="695.9" y="450.9" class="st0" width="6.5" height="49.9"/>
	</g>
</g>
<g id="Layer_2" class="st10">
	<rect x="566.4" y="-571.9" class="st11" width="299.4" height="299.4"/>
	<g class="st12">
		<rect x="566.4" y="-272.6" class="st13" width="299.4" height="299.4"/>
	</g>
	<rect x="566.4" y="26.8" class="st11" width="299.4" height="299.4"/>
	<rect x="566.4" y="326.1" class="st11" width="299.4" height="299.4"/>
</g>
</svg>
