<?xml version="1.0" encoding="utf-8"?>
<!-- Generator: Adobe Illustrator 19.1.0, SVG Export Plug-In . SVG Version: 6.00 Build 0)  -->
<svg version="1.1" xmlns="http://www.w3.org/2000/svg" xmlns:xlink="http://www.w3.org/1999/xlink" x="0px" y="0px"
	 viewBox="962.1 -572.3 300.1 1198.2" style="enable-background:new 962.1 -572.3 300.1 1198.2;" xml:space="preserve">
<style type="text/css">
	.st0{fill:#1D1D1B;}
	.st1{fill:url(#SVGID_1_);}
	.st2{fill:url(#SVGID_2_);}
	.st3{fill:url(#SVGID_3_);}
	.st4{fill:url(#SVGID_4_);}
	.st5{fill:#FFFFFF;}
	.st6{fill:url(#SVGID_5_);}
	.st7{fill:url(#SVGID_6_);}
	.st8{fill:url(#SVGID_7_);}
	.st9{fill:url(#SVGID_8_);}
	.st10{display:none;}
	.st11{display:inline;fill:none;stroke:#70706E;stroke-width:0.7484;stroke-miterlimit:10;}
	.st12{display:inline;}
	.st13{fill:none;stroke:#70706E;stroke-width:0.7484;stroke-miterlimit:10;}
</style>
<g id="Layer_1">
	<path class="st5" d="M1022.2-397.3l18.3-50l9.2,0l18.3,50l-9.6,0l-4.3-11.8h-17.9l-4.3,11.8L1022.2-397.3z M1039.3-417.6l11.7,0
		l-5.8-16L1039.3-417.6z"/>
	<path class="st5" d="M1151.9-397.3l18.3-50h9.2l18.3,50h-9.6l-4.3-11.8h-17.9l-4.3,11.8L1151.9-397.3z M1168.9-417.6l11.7,0
		l-5.8-16L1168.9-417.6z"/>
	<path class="st5" d="M1072.7-447.3h7.4l25.6,31.8l0-31.8h9.6v50h-6.7l-26.3-32.6v32.6h-9.6V-447.3z"/>
	<path class="st5" d="M1160.1-447.3l-3.1,8.6l-13.2,0v41.4h-9.6v-41.4l-13.2,0v-8.6L1160.1-447.3z"/>
	<path class="st5" d="M1244.9-397.3l-15.6-21.6c2-0.7,3.5-1.8,4.8-3.2c2.5-2.6,3.9-6.4,3.9-10.4c0-3.9-1.4-7.8-3.9-10.4
		c-2.8-2.9-6.6-4.5-13-4.5h-18.8v50h9.6l0-20.4h7.9l14.6,20.4H1244.9z M1211.9-438.7h8.7c3.3,0,4.9,0.8,6.1,2
		c1.1,1.1,1.6,2.6,1.6,4.3c0,1.6-0.6,3.1-1.6,4.2c-1.1,1.2-2.8,2-6.1,2l-8.7,0V-438.7z"/>
	<g>
		<g>
			<polygon class="st5" points="1019.9,-447.3 1009.5,-447.3 991.5,-422.3 1009.5,-397.3 1019.9,-397.3 1002,-422.3 			"/>
		</g>
		<linearGradient id="SVGID_1_" gradientUnits="userSpaceOnUse" x1="989.8351" y1="-397.2623" x2="989.8351" y2="-447.2646">
			<stop  offset="1.000000e-02" style="stop-color:#F2DA64"/>
			<stop  offset="3.207484e-02" style="stop-color:#E1C553"/>
			<stop  offset="7.345867e-02" style="stop-color:#C5A437"/>
			<stop  offset="0.113" style="stop-color:#B18C23"/>
			<stop  offset="0.1495" style="stop-color:#A57D17"/>
			<stop  offset="0.18" style="stop-color:#A17813"/>
			<stop  offset="0.1949" style="stop-color:#A57D17"/>
			<stop  offset="0.51" style="stop-color:#F1DA64"/>
			<stop  offset="0.5776" style="stop-color:#EBD15D"/>
			<stop  offset="0.6875" style="stop-color:#DAB94A"/>
			<stop  offset="0.71" style="stop-color:#D6B345"/>
			<stop  offset="1" style="stop-color:#977114"/>
		</linearGradient>
		<rect x="988.4" y="-447.3" class="st1" width="2.9" height="50"/>
		<rect x="979.5" y="-447.3" class="st5" width="8.8" height="50"/>
	</g>
	<path class="st5" d="M1022.4-97.9l18.3-49.9h9.2l18.3,49.9h-9.6l-4.3-11.8h-17.9l-4.3,11.8H1022.4z M1039.4-118.3h11.7l-5.8-16
		L1039.4-118.3z"/>
	<path class="st5" d="M1151.8-97.9l18.3-49.9h9.2l18.3,49.9h-9.6l-4.3-11.8h-17.9l-4.3,11.8H1151.8z M1168.9-118.3h11.7l-5.8-16
		L1168.9-118.3z"/>
	<path class="st5" d="M1072.7-147.9h7.3l25.6,31.8v-31.8h9.6v49.9h-6.7l-26.2-32.6v32.6h-9.6V-147.9z"/>
	<path class="st5" d="M1160.1-147.9l-3.1,8.5h-13.2l0,41.4h-9.6l0-41.4H1121v-8.5H1160.1z"/>
	<path class="st5" d="M1244.7-97.9l-15.6-21.6c2-0.7,3.5-1.8,4.8-3.2c2.5-2.6,3.9-6.4,3.9-10.3c0-3.9-1.4-7.8-3.9-10.3
		c-2.8-2.9-6.6-4.5-13-4.5h-18.8v49.9h9.6v-20.3h7.9l14.6,20.3H1244.7z M1211.8-139.3h8.7c3.3,0,4.9,0.8,6.1,2
		c1.1,1.1,1.6,2.6,1.6,4.3c0,1.6-0.6,3.1-1.6,4.2c-1.1,1.2-2.8,2-6.1,2h-8.7V-139.3z"/>
	<g>
		<g>
			<polygon class="st5" points="1020,-147.9 1009.6,-147.9 991.7,-122.9 1009.6,-97.9 1020,-97.9 1002.2,-122.9 			"/>
		</g>
		<linearGradient id="SVGID_2_" gradientUnits="userSpaceOnUse" x1="989.4008" y1="-97.9312" x2="989.4008" y2="-147.8697">
			<stop  offset="1.000000e-02" style="stop-color:#F2DA64"/>
			<stop  offset="3.207484e-02" style="stop-color:#E1C553"/>
			<stop  offset="7.345867e-02" style="stop-color:#C5A437"/>
			<stop  offset="0.113" style="stop-color:#B18C23"/>
			<stop  offset="0.1495" style="stop-color:#A57D17"/>
			<stop  offset="0.18" style="stop-color:#A17813"/>
			<stop  offset="0.1949" style="stop-color:#A57D17"/>
			<stop  offset="0.51" style="stop-color:#F1DA64"/>
			<stop  offset="0.5776" style="stop-color:#EBD15D"/>
			<stop  offset="0.6875" style="stop-color:#DAB94A"/>
			<stop  offset="0.71" style="stop-color:#D6B345"/>
			<stop  offset="1" style="stop-color:#977114"/>
		</linearGradient>
		<rect x="987.3" y="-147.9" class="st2" width="4.1" height="49.9"/>
		<rect x="979.7" y="-147.9" class="st5" width="7.6" height="49.9"/>
	</g>
	<path class="st5" d="M1022.4,201.4l18.3-49.9h9.2l18.3,49.9h-9.6l-4.3-11.8h-17.9l-4.3,11.8H1022.4z M1039.4,181.1h11.7l-5.8-16
		L1039.4,181.1z"/>
	<path class="st5" d="M1151.8,201.4l18.3-49.9h9.2l18.3,49.9h-9.6l-4.3-11.8h-17.9l-4.3,11.8H1151.8z M1168.9,181.1h11.7l-5.8-16
		L1168.9,181.1z"/>
	<path class="st5" d="M1072.7,151.5h7.3l25.6,31.8v-31.8h9.6v49.9h-6.7l-26.2-32.6v32.6h-9.6V151.5z"/>
	<path class="st5" d="M1160.1,151.5l-3.1,8.5h-13.2l0,41.4h-9.6l0-41.4H1121v-8.5H1160.1z"/>
	<path class="st5" d="M1244.7,201.4l-15.6-21.6c2-0.7,3.5-1.8,4.8-3.2c2.5-2.6,3.9-6.4,3.9-10.3c0-3.9-1.4-7.8-3.9-10.3
		c-2.8-2.9-6.6-4.5-13-4.5h-18.8v49.9h9.6v-20.3h7.9l14.6,20.3H1244.7z M1211.8,160h8.7c3.3,0,4.9,0.8,6.1,2
		c1.1,1.1,1.6,2.6,1.6,4.3c0,1.6-0.6,3.1-1.6,4.2c-1.1,1.2-2.8,2-6.1,2h-8.7V160z"/>
	<g>
		<g>
			<polygon class="st5" points="1020,151.5 1009.6,151.5 991.7,176.5 1009.6,201.4 1020,201.4 1002.2,176.5 			"/>
		</g>
		<linearGradient id="SVGID_3_" gradientUnits="userSpaceOnUse" x1="988.8124" y1="201.4318" x2="988.8124" y2="151.4933">
			<stop  offset="1.000000e-02" style="stop-color:#F2DA64"/>
			<stop  offset="3.207484e-02" style="stop-color:#E1C553"/>
			<stop  offset="7.345867e-02" style="stop-color:#C5A437"/>
			<stop  offset="0.113" style="stop-color:#B18C23"/>
			<stop  offset="0.1495" style="stop-color:#A57D17"/>
			<stop  offset="0.18" style="stop-color:#A17813"/>
			<stop  offset="0.1949" style="stop-color:#A57D17"/>
			<stop  offset="0.51" style="stop-color:#F1DA64"/>
			<stop  offset="0.5776" style="stop-color:#EBD15D"/>
			<stop  offset="0.6875" style="stop-color:#DAB94A"/>
			<stop  offset="0.71" style="stop-color:#D6B345"/>
			<stop  offset="1" style="stop-color:#977114"/>
		</linearGradient>
		<rect x="986.2" y="151.5" class="st3" width="5.3" height="49.9"/>
		<rect x="979.7" y="151.5" class="st5" width="6.5" height="49.9"/>
	</g>
	<g>
		<polygon class="st5" points="1132.4,450.9 1121.9,450.9 1104,475.8 1121.9,500.8 1132.4,500.8 1114.5,475.8 		"/>
	</g>
	<linearGradient id="SVGID_4_" gradientUnits="userSpaceOnUse" x1="1101.1334" y1="500.7938" x2="1101.1334" y2="450.8553">
		<stop  offset="1.000000e-02" style="stop-color:#F2DA64"/>
		<stop  offset="3.207484e-02" style="stop-color:#E1C553"/>
		<stop  offset="7.345867e-02" style="stop-color:#C5A437"/>
		<stop  offset="0.113" style="stop-color:#B18C23"/>
		<stop  offset="0.1495" style="stop-color:#A57D17"/>
		<stop  offset="0.18" style="stop-color:#A17813"/>
		<stop  offset="0.1949" style="stop-color:#A57D17"/>
		<stop  offset="0.51" style="stop-color:#F1DA64"/>
		<stop  offset="0.5776" style="stop-color:#EBD15D"/>
		<stop  offset="0.6875" style="stop-color:#DAB94A"/>
		<stop  offset="0.71" style="stop-color:#D6B345"/>
		<stop  offset="1" style="stop-color:#977114"/>
	</linearGradient>
	<rect x="1098.5" y="450.9" class="st4" width="5.3" height="49.9"/>
	<rect x="1092" y="450.9" class="st5" width="6.5" height="49.9"/>
</g>
<g id="Layer_2" class="st10">
	<rect x="962.5" y="-571.9" class="st11" width="299.4" height="299.4"/>
	<rect x="962.5" y="-272.6" class="st11" width="299.4" height="299.4"/>
	<rect x="962.5" y="26.8" class="st11" width="299.4" height="299.4"/>
	<rect x="962.5" y="326.1" class="st11" width="299.4" height="299.4"/>
</g>
</svg>
